<?xml version="1.0" encoding="UTF-8" standalone="no"?>
<!DOCTYPE svg PUBLIC "-//W3C//DTD SVG 1.1//EN"
 "http://www.w3.org/Graphics/SVG/1.1/DTD/svg11.dtd">
<!-- Generated by graphviz version 2.49.3 (20211023.0002)
 -->
<!-- Pages: 1 -->
<svg width="2248pt" height="764pt"
 viewBox="0.00 0.00 2247.50 764.00" xmlns="http://www.w3.org/2000/svg" xmlns:xlink="http://www.w3.org/1999/xlink">
<g id="graph0" class="graph" transform="scale(1 1) rotate(0) translate(4 760)">
<polygon fill="white" stroke="transparent" points="-4,4 -4,-760 2243.5,-760 2243.5,4 -4,4"/>
<!-- [root] aws_api_gateway_account.api_gateway_account (expand) -->
<g id="node1" class="node">
<title>[root] aws_api_gateway_account.api_gateway_account (expand)</title>
<polygon fill="none" stroke="black" points="764,-612 473,-612 473,-576 764,-576 764,-612"/>
<text text-anchor="middle" x="618.5" y="-590.3" font-family="Times New Roman,serif" font-size="14.00">aws_api_gateway_account.api_gateway_account</text>
</g>
<!-- [root] aws_iam_role.apigateway_role (expand) -->
<g id="node12" class="node">
<title>[root] aws_iam_role.apigateway_role (expand)</title>
<polygon fill="none" stroke="black" points="871.5,-540 683.5,-540 683.5,-504 871.5,-504 871.5,-540"/>
<text text-anchor="middle" x="777.5" y="-518.3" font-family="Times New Roman,serif" font-size="14.00">aws_iam_role.apigateway_role</text>
</g>
<!-- [root] aws_api_gateway_account.api_gateway_account (expand)&#45;&gt;[root] aws_iam_role.apigateway_role (expand) -->
<g id="edge1" class="edge">
<title>[root] aws_api_gateway_account.api_gateway_account (expand)&#45;&gt;[root] aws_iam_role.apigateway_role (expand)</title>
<path fill="none" stroke="black" d="M657.4,-575.88C679.13,-566.31 706.4,-554.3 729.46,-544.15"/>
<polygon fill="black" stroke="black" points="730.99,-547.3 738.73,-540.07 728.17,-540.89 730.99,-547.3"/>
</g>
<!-- [root] aws_api_gateway_deployment.api_gateway_deployment (expand) -->
<g id="node2" class="node">
<title>[root] aws_api_gateway_deployment.api_gateway_deployment (expand)</title>
<polygon fill="none" stroke="black" points="2037,-468 1704,-468 1704,-432 2037,-432 2037,-468"/>
<text text-anchor="middle" x="1870.5" y="-446.3" font-family="Times New Roman,serif" font-size="14.00">aws_api_gateway_deployment.api_gateway_deployment</text>
</g>
<!-- [root] aws_api_gateway_integration.api_gateway_method_post_integration_dynamodbmanager (expand) -->
<g id="node3" class="node">
<title>[root] aws_api_gateway_integration.api_gateway_method_post_integration_dynamodbmanager (expand)</title>
<polygon fill="none" stroke="black" points="2077.5,-396 1563.5,-396 1563.5,-360 2077.5,-360 2077.5,-396"/>
<text text-anchor="middle" x="1820.5" y="-374.3" font-family="Times New Roman,serif" font-size="14.00">aws_api_gateway_integration.api_gateway_method_post_integration_dynamodbmanager</text>
</g>
<!-- [root] aws_api_gateway_deployment.api_gateway_deployment (expand)&#45;&gt;[root] aws_api_gateway_integration.api_gateway_method_post_integration_dynamodbmanager (expand) -->
<g id="edge2" class="edge">
<title>[root] aws_api_gateway_deployment.api_gateway_deployment (expand)&#45;&gt;[root] aws_api_gateway_integration.api_gateway_method_post_integration_dynamodbmanager (expand)</title>
<path fill="none" stroke="black" d="M1858.14,-431.7C1852.27,-423.47 1845.13,-413.48 1838.66,-404.42"/>
<polygon fill="black" stroke="black" points="1841.38,-402.21 1832.72,-396.1 1835.68,-406.28 1841.38,-402.21"/>
</g>
<!-- [root] aws_api_gateway_method.api_gateway_method_post_dynamodbmanager (expand) -->
<g id="node4" class="node">
<title>[root] aws_api_gateway_method.api_gateway_method_post_dynamodbmanager (expand)</title>
<polygon fill="none" stroke="black" points="2037,-324 1604,-324 1604,-288 2037,-288 2037,-324"/>
<text text-anchor="middle" x="1820.5" y="-302.3" font-family="Times New Roman,serif" font-size="14.00">aws_api_gateway_method.api_gateway_method_post_dynamodbmanager</text>
</g>
<!-- [root] aws_api_gateway_integration.api_gateway_method_post_integration_dynamodbmanager (expand)&#45;&gt;[root] aws_api_gateway_method.api_gateway_method_post_dynamodbmanager (expand) -->
<g id="edge3" class="edge">
<title>[root] aws_api_gateway_integration.api_gateway_method_post_integration_dynamodbmanager (expand)&#45;&gt;[root] aws_api_gateway_method.api_gateway_method_post_dynamodbmanager (expand)</title>
<path fill="none" stroke="black" d="M1820.5,-359.7C1820.5,-351.98 1820.5,-342.71 1820.5,-334.11"/>
<polygon fill="black" stroke="black" points="1824,-334.1 1820.5,-324.1 1817,-334.1 1824,-334.1"/>
</g>
<!-- [root] aws_iam_role.rest_api_role_TfTokenTOKEN11 (expand) -->
<g id="node14" class="node">
<title>[root] aws_iam_role.rest_api_role_TfTokenTOKEN11 (expand)</title>
<polygon fill="none" stroke="black" points="1585.5,-324 1297.5,-324 1297.5,-288 1585.5,-288 1585.5,-324"/>
<text text-anchor="middle" x="1441.5" y="-302.3" font-family="Times New Roman,serif" font-size="14.00">aws_iam_role.rest_api_role_TfTokenTOKEN11</text>
</g>
<!-- [root] aws_api_gateway_integration.api_gateway_method_post_integration_dynamodbmanager (expand)&#45;&gt;[root] aws_iam_role.rest_api_role_TfTokenTOKEN11 (expand) -->
<g id="edge4" class="edge">
<title>[root] aws_api_gateway_integration.api_gateway_method_post_integration_dynamodbmanager (expand)&#45;&gt;[root] aws_iam_role.rest_api_role_TfTokenTOKEN11 (expand)</title>
<path fill="none" stroke="black" d="M1728.27,-359.97C1672.45,-349.66 1601.18,-336.49 1543.65,-325.87"/>
<polygon fill="black" stroke="black" points="1544.28,-322.42 1533.81,-324.05 1543.01,-329.31 1544.28,-322.42"/>
</g>
<!-- [root] aws_api_gateway_resource.api_gateway_resource_dynamodbmanager (expand) -->
<g id="node6" class="node">
<title>[root] aws_api_gateway_resource.api_gateway_resource_dynamodbmanager (expand)</title>
<polygon fill="none" stroke="black" points="1785,-252 1372,-252 1372,-216 1785,-216 1785,-252"/>
<text text-anchor="middle" x="1578.5" y="-230.3" font-family="Times New Roman,serif" font-size="14.00">aws_api_gateway_resource.api_gateway_resource_dynamodbmanager</text>
</g>
<!-- [root] aws_api_gateway_method.api_gateway_method_post_dynamodbmanager (expand)&#45;&gt;[root] aws_api_gateway_resource.api_gateway_resource_dynamodbmanager (expand) -->
<g id="edge5" class="edge">
<title>[root] aws_api_gateway_method.api_gateway_method_post_dynamodbmanager (expand)&#45;&gt;[root] aws_api_gateway_resource.api_gateway_resource_dynamodbmanager (expand)</title>
<path fill="none" stroke="black" d="M1761.61,-287.97C1727.21,-278.01 1683.62,-265.41 1647.6,-254.99"/>
<polygon fill="black" stroke="black" points="1648.23,-251.53 1637.65,-252.11 1646.29,-258.25 1648.23,-251.53"/>
</g>
<!-- [root] aws_api_gateway_method_settings.api&#45;gateway&#45;method&#45;settings (expand) -->
<g id="node5" class="node">
<title>[root] aws_api_gateway_method_settings.api&#45;gateway&#45;method&#45;settings (expand)</title>
<polygon fill="none" stroke="black" points="2109,-612 1732,-612 1732,-576 2109,-576 2109,-612"/>
<text text-anchor="middle" x="1920.5" y="-590.3" font-family="Times New Roman,serif" font-size="14.00">aws_api_gateway_method_settings.api&#45;gateway&#45;method&#45;settings</text>
</g>
<!-- [root] aws_api_gateway_stage.api_gateway_stage (expand) -->
<g id="node8" class="node">
<title>[root] aws_api_gateway_stage.api_gateway_stage (expand)</title>
<polygon fill="none" stroke="black" points="2050.5,-540 1790.5,-540 1790.5,-504 2050.5,-504 2050.5,-540"/>
<text text-anchor="middle" x="1920.5" y="-518.3" font-family="Times New Roman,serif" font-size="14.00">aws_api_gateway_stage.api_gateway_stage</text>
</g>
<!-- [root] aws_api_gateway_method_settings.api&#45;gateway&#45;method&#45;settings (expand)&#45;&gt;[root] aws_api_gateway_stage.api_gateway_stage (expand) -->
<g id="edge6" class="edge">
<title>[root] aws_api_gateway_method_settings.api&#45;gateway&#45;method&#45;settings (expand)&#45;&gt;[root] aws_api_gateway_stage.api_gateway_stage (expand)</title>
<path fill="none" stroke="black" d="M1920.5,-575.7C1920.5,-567.98 1920.5,-558.71 1920.5,-550.11"/>
<polygon fill="black" stroke="black" points="1924,-550.1 1920.5,-540.1 1917,-550.1 1924,-550.1"/>
</g>
<!-- [root] aws_api_gateway_rest_api.api_gateway_rest_api_dynamodbmanager (expand) -->
<g id="node7" class="node">
<title>[root] aws_api_gateway_rest_api.api_gateway_rest_api_dynamodbmanager (expand)</title>
<polygon fill="none" stroke="black" points="1779,-108 1374,-108 1374,-72 1779,-72 1779,-108"/>
<text text-anchor="middle" x="1576.5" y="-86.3" font-family="Times New Roman,serif" font-size="14.00">aws_api_gateway_rest_api.api_gateway_rest_api_dynamodbmanager</text>
</g>
<!-- [root] aws_api_gateway_resource.api_gateway_resource_dynamodbmanager (expand)&#45;&gt;[root] aws_api_gateway_rest_api.api_gateway_rest_api_dynamodbmanager (expand) -->
<g id="edge7" class="edge">
<title>[root] aws_api_gateway_resource.api_gateway_resource_dynamodbmanager (expand)&#45;&gt;[root] aws_api_gateway_rest_api.api_gateway_rest_api_dynamodbmanager (expand)</title>
<path fill="none" stroke="black" d="M1578.26,-215.87C1577.92,-191.67 1577.29,-147.21 1576.89,-118.39"/>
<polygon fill="black" stroke="black" points="1580.38,-118.14 1576.74,-108.19 1573.38,-118.24 1580.38,-118.14"/>
</g>
<!-- [root] provider[&quot;registry.terraform.io/hashicorp/aws&quot;] -->
<g id="node22" class="node">
<title>[root] provider[&quot;registry.terraform.io/hashicorp/aws&quot;]</title>
<polygon fill="none" stroke="black" points="908.5,-36 651.27,-18 908.5,0 1165.73,-18 908.5,-36"/>
<text text-anchor="middle" x="908.5" y="-14.3" font-family="Times New Roman,serif" font-size="14.00">provider[&quot;registry.terraform.io/hashicorp/aws&quot;]</text>
</g>
<!-- [root] aws_api_gateway_rest_api.api_gateway_rest_api_dynamodbmanager (expand)&#45;&gt;[root] provider[&quot;registry.terraform.io/hashicorp/aws&quot;] -->
<g id="edge8" class="edge">
<title>[root] aws_api_gateway_rest_api.api_gateway_rest_api_dynamodbmanager (expand)&#45;&gt;[root] provider[&quot;registry.terraform.io/hashicorp/aws&quot;]</title>
<path fill="none" stroke="black" d="M1413.94,-71.97C1290.3,-59.01 1123.64,-41.54 1016.12,-30.28"/>
<polygon fill="black" stroke="black" points="1016.21,-26.77 1005.9,-29.21 1015.48,-33.73 1016.21,-26.77"/>
</g>
<!-- [root] aws_api_gateway_stage.api_gateway_stage (expand)&#45;&gt;[root] aws_api_gateway_deployment.api_gateway_deployment (expand) -->
<g id="edge9" class="edge">
<title>[root] aws_api_gateway_stage.api_gateway_stage (expand)&#45;&gt;[root] aws_api_gateway_deployment.api_gateway_deployment (expand)</title>
<path fill="none" stroke="black" d="M1908.14,-503.7C1902.27,-495.47 1895.13,-485.48 1888.66,-476.42"/>
<polygon fill="black" stroke="black" points="1891.38,-474.21 1882.72,-468.1 1885.68,-478.28 1891.38,-474.21"/>
</g>
<!-- [root] aws_iam_policy.api_gateway_policy (expand) -->
<g id="node9" class="node">
<title>[root] aws_iam_policy.api_gateway_policy (expand)</title>
<polygon fill="none" stroke="black" points="1092.5,-108 870.5,-108 870.5,-72 1092.5,-72 1092.5,-108"/>
<text text-anchor="middle" x="981.5" y="-86.3" font-family="Times New Roman,serif" font-size="14.00">aws_iam_policy.api_gateway_policy</text>
</g>
<!-- [root] aws_iam_policy.api_gateway_policy (expand)&#45;&gt;[root] provider[&quot;registry.terraform.io/hashicorp/aws&quot;] -->
<g id="edge10" class="edge">
<title>[root] aws_iam_policy.api_gateway_policy (expand)&#45;&gt;[root] provider[&quot;registry.terraform.io/hashicorp/aws&quot;]</title>
<path fill="none" stroke="black" d="M963.46,-71.7C954.17,-62.79 942.72,-51.81 932.68,-42.19"/>
<polygon fill="black" stroke="black" points="934.98,-39.54 925.34,-35.14 930.13,-44.59 934.98,-39.54"/>
</g>
<!-- [root] aws_iam_policy.lambda_apigateway_policy (expand) -->
<g id="node10" class="node">
<title>[root] aws_iam_policy.lambda_apigateway_policy (expand)</title>
<polygon fill="none" stroke="black" points="560,-468 297,-468 297,-432 560,-432 560,-468"/>
<text text-anchor="middle" x="428.5" y="-446.3" font-family="Times New Roman,serif" font-size="14.00">aws_iam_policy.lambda_apigateway_policy</text>
</g>
<!-- [root] aws_iam_policy.lambda_apigateway_policy (expand)&#45;&gt;[root] provider[&quot;registry.terraform.io/hashicorp/aws&quot;] -->
<g id="edge11" class="edge">
<title>[root] aws_iam_policy.lambda_apigateway_policy (expand)&#45;&gt;[root] provider[&quot;registry.terraform.io/hashicorp/aws&quot;]</title>
<path fill="none" stroke="black" d="M450.06,-431.78C478.09,-407.28 523.5,-359.5 523.5,-307 523.5,-307 523.5,-307 523.5,-161 523.5,-97.38 710.91,-53.41 824.22,-32.64"/>
<polygon fill="black" stroke="black" points="825.05,-36.05 834.27,-30.83 823.8,-29.16 825.05,-36.05"/>
</g>
<!-- [root] aws_iam_policy.rest_api_policy_TfTokenTOKEN9 (expand) -->
<g id="node11" class="node">
<title>[root] aws_iam_policy.rest_api_policy_TfTokenTOKEN9 (expand)</title>
<polygon fill="none" stroke="black" points="1405.5,-396 1097.5,-396 1097.5,-360 1405.5,-360 1405.5,-396"/>
<text text-anchor="middle" x="1251.5" y="-374.3" font-family="Times New Roman,serif" font-size="14.00">aws_iam_policy.rest_api_policy_TfTokenTOKEN9</text>
</g>
<!-- [root] aws_lambda_function.lambda (expand) -->
<g id="node18" class="node">
<title>[root] aws_lambda_function.lambda (expand)</title>
<polygon fill="none" stroke="black" points="1342.5,-252 1158.5,-252 1158.5,-216 1342.5,-216 1342.5,-252"/>
<text text-anchor="middle" x="1250.5" y="-230.3" font-family="Times New Roman,serif" font-size="14.00">aws_lambda_function.lambda</text>
</g>
<!-- [root] aws_iam_policy.rest_api_policy_TfTokenTOKEN9 (expand)&#45;&gt;[root] aws_lambda_function.lambda (expand) -->
<g id="edge12" class="edge">
<title>[root] aws_iam_policy.rest_api_policy_TfTokenTOKEN9 (expand)&#45;&gt;[root] aws_lambda_function.lambda (expand)</title>
<path fill="none" stroke="black" d="M1251.38,-359.87C1251.21,-335.67 1250.9,-291.21 1250.69,-262.39"/>
<polygon fill="black" stroke="black" points="1254.19,-262.16 1250.62,-252.19 1247.19,-262.21 1254.19,-262.16"/>
</g>
<!-- [root] aws_iam_role.apigateway_role (expand)&#45;&gt;[root] provider[&quot;registry.terraform.io/hashicorp/aws&quot;] -->
<g id="edge13" class="edge">
<title>[root] aws_iam_role.apigateway_role (expand)&#45;&gt;[root] provider[&quot;registry.terraform.io/hashicorp/aws&quot;]</title>
<path fill="none" stroke="black" d="M758.86,-503.69C734.11,-478.72 693.5,-429.98 693.5,-379 693.5,-379 693.5,-379 693.5,-161 693.5,-90.51 774.95,-53 837.59,-34.57"/>
<polygon fill="black" stroke="black" points="838.8,-37.87 847.46,-31.78 836.89,-31.13 838.8,-37.87"/>
</g>
<!-- [root] aws_iam_role.lambda_apigateway_role (expand) -->
<g id="node13" class="node">
<title>[root] aws_iam_role.lambda_apigateway_role (expand)</title>
<polygon fill="none" stroke="black" points="957.5,-180 721.5,-180 721.5,-144 957.5,-144 957.5,-180"/>
<text text-anchor="middle" x="839.5" y="-158.3" font-family="Times New Roman,serif" font-size="14.00">aws_iam_role.lambda_apigateway_role</text>
</g>
<!-- [root] aws_iam_role.lambda_apigateway_role (expand)&#45;&gt;[root] provider[&quot;registry.terraform.io/hashicorp/aws&quot;] -->
<g id="edge14" class="edge">
<title>[root] aws_iam_role.lambda_apigateway_role (expand)&#45;&gt;[root] provider[&quot;registry.terraform.io/hashicorp/aws&quot;]</title>
<path fill="none" stroke="black" d="M841.28,-143.73C843.74,-125.13 849.36,-95.11 861.5,-72 867.11,-61.33 875.31,-51.06 883.3,-42.45"/>
<polygon fill="black" stroke="black" points="886.03,-44.66 890.49,-35.05 881.01,-39.78 886.03,-44.66"/>
</g>
<!-- [root] aws_iam_role.rest_api_role_TfTokenTOKEN11 (expand)&#45;&gt;[root] aws_lambda_function.lambda (expand) -->
<g id="edge15" class="edge">
<title>[root] aws_iam_role.rest_api_role_TfTokenTOKEN11 (expand)&#45;&gt;[root] aws_lambda_function.lambda (expand)</title>
<path fill="none" stroke="black" d="M1394.78,-287.88C1368.2,-278.14 1334.74,-265.87 1306.73,-255.61"/>
<polygon fill="black" stroke="black" points="1307.67,-252.22 1297.07,-252.07 1305.26,-258.8 1307.67,-252.22"/>
</g>
<!-- [root] aws_iam_role_policy_attachment.apigateway_role_policy_attachment (expand) -->
<g id="node15" class="node">
<title>[root] aws_iam_role_policy_attachment.apigateway_role_policy_attachment (expand)</title>
<polygon fill="none" stroke="black" points="1189,-612 782,-612 782,-576 1189,-576 1189,-612"/>
<text text-anchor="middle" x="985.5" y="-590.3" font-family="Times New Roman,serif" font-size="14.00">aws_iam_role_policy_attachment.apigateway_role_policy_attachment</text>
</g>
<!-- [root] aws_iam_role_policy_attachment.apigateway_role_policy_attachment (expand)&#45;&gt;[root] aws_iam_policy.api_gateway_policy (expand) -->
<g id="edge16" class="edge">
<title>[root] aws_iam_role_policy_attachment.apigateway_role_policy_attachment (expand)&#45;&gt;[root] aws_iam_policy.api_gateway_policy (expand)</title>
<path fill="none" stroke="black" d="M985.5,-575.95C985.5,-549.29 985.5,-496.11 985.5,-451 985.5,-451 985.5,-451 985.5,-233 985.5,-192.98 983.89,-146.64 982.72,-118.07"/>
<polygon fill="black" stroke="black" points="986.21,-117.89 982.29,-108.04 979.22,-118.18 986.21,-117.89"/>
</g>
<!-- [root] aws_iam_role_policy_attachment.apigateway_role_policy_attachment (expand)&#45;&gt;[root] aws_iam_role.apigateway_role (expand) -->
<g id="edge17" class="edge">
<title>[root] aws_iam_role_policy_attachment.apigateway_role_policy_attachment (expand)&#45;&gt;[root] aws_iam_role.apigateway_role (expand)</title>
<path fill="none" stroke="black" d="M934.88,-575.97C905.69,-566.14 868.81,-553.73 838.08,-543.39"/>
<polygon fill="black" stroke="black" points="838.94,-539.98 828.34,-540.11 836.7,-546.62 838.94,-539.98"/>
</g>
<!-- [root] aws_iam_role_policy_attachment.lambda_apigateway_role_policy_attachment (expand) -->
<g id="node16" class="node">
<title>[root] aws_iam_role_policy_attachment.lambda_apigateway_role_policy_attachment (expand)</title>
<polygon fill="none" stroke="black" points="455,-612 0,-612 0,-576 455,-576 455,-612"/>
<text text-anchor="middle" x="227.5" y="-590.3" font-family="Times New Roman,serif" font-size="14.00">aws_iam_role_policy_attachment.lambda_apigateway_role_policy_attachment</text>
</g>
<!-- [root] aws_iam_role_policy_attachment.lambda_apigateway_role_policy_attachment (expand)&#45;&gt;[root] aws_iam_policy.lambda_apigateway_policy (expand) -->
<g id="edge18" class="edge">
<title>[root] aws_iam_role_policy_attachment.lambda_apigateway_role_policy_attachment (expand)&#45;&gt;[root] aws_iam_policy.lambda_apigateway_policy (expand)</title>
<path fill="none" stroke="black" d="M251.75,-575.87C287.81,-550.39 355.67,-502.45 396,-473.96"/>
<polygon fill="black" stroke="black" points="398.02,-476.82 404.17,-468.19 393.98,-471.1 398.02,-476.82"/>
</g>
<!-- [root] aws_iam_role_policy_attachment.lambda_apigateway_role_policy_attachment (expand)&#45;&gt;[root] aws_iam_role.lambda_apigateway_role (expand) -->
<g id="edge19" class="edge">
<title>[root] aws_iam_role_policy_attachment.lambda_apigateway_role_policy_attachment (expand)&#45;&gt;[root] aws_iam_role.lambda_apigateway_role (expand)</title>
<path fill="none" stroke="black" d="M353.89,-575.99C480.12,-555.36 655.5,-515.15 655.5,-451 655.5,-451 655.5,-451 655.5,-377 655.5,-289.05 745.97,-219.22 800.03,-185.34"/>
<polygon fill="black" stroke="black" points="802.01,-188.24 808.7,-180.02 798.35,-182.27 802.01,-188.24"/>
</g>
<!-- [root] aws_iam_role_policy_attachment.rest_api_role_policy_attachment_TfTokenTOKEN12 (expand) -->
<g id="node17" class="node">
<title>[root] aws_iam_role_policy_attachment.rest_api_role_policy_attachment_TfTokenTOKEN12 (expand)</title>
<polygon fill="none" stroke="black" points="1714,-612 1207,-612 1207,-576 1714,-576 1714,-612"/>
<text text-anchor="middle" x="1460.5" y="-590.3" font-family="Times New Roman,serif" font-size="14.00">aws_iam_role_policy_attachment.rest_api_role_policy_attachment_TfTokenTOKEN12</text>
</g>
<!-- [root] aws_iam_role_policy_attachment.rest_api_role_policy_attachment_TfTokenTOKEN12 (expand)&#45;&gt;[root] aws_iam_policy.rest_api_policy_TfTokenTOKEN9 (expand) -->
<g id="edge20" class="edge">
<title>[root] aws_iam_role_policy_attachment.rest_api_role_policy_attachment_TfTokenTOKEN12 (expand)&#45;&gt;[root] aws_iam_policy.rest_api_policy_TfTokenTOKEN9 (expand)</title>
<path fill="none" stroke="black" d="M1443.75,-575.85C1406.83,-538.05 1318.35,-447.45 1275.53,-403.6"/>
<polygon fill="black" stroke="black" points="1277.82,-400.94 1268.33,-396.23 1272.81,-405.83 1277.82,-400.94"/>
</g>
<!-- [root] aws_iam_role_policy_attachment.rest_api_role_policy_attachment_TfTokenTOKEN12 (expand)&#45;&gt;[root] aws_iam_role.rest_api_role_TfTokenTOKEN11 (expand) -->
<g id="edge21" class="edge">
<title>[root] aws_iam_role_policy_attachment.rest_api_role_policy_attachment_TfTokenTOKEN12 (expand)&#45;&gt;[root] aws_iam_role.rest_api_role_TfTokenTOKEN11 (expand)</title>
<path fill="none" stroke="black" d="M1459.37,-575.97C1456.2,-528.29 1447.23,-393.18 1443.34,-334.63"/>
<polygon fill="black" stroke="black" points="1446.8,-334.05 1442.65,-324.31 1439.82,-334.52 1446.8,-334.05"/>
</g>
<!-- [root] aws_lambda_function.lambda (expand)&#45;&gt;[root] aws_iam_role.lambda_apigateway_role (expand) -->
<g id="edge22" class="edge">
<title>[root] aws_lambda_function.lambda (expand)&#45;&gt;[root] aws_iam_role.lambda_apigateway_role (expand)</title>
<path fill="none" stroke="black" d="M1158.26,-217.29C1096.36,-206.75 1014.51,-192.81 949.25,-181.69"/>
<polygon fill="black" stroke="black" points="949.78,-178.23 939.33,-180 948.6,-185.13 949.78,-178.23"/>
</g>
<!-- [root] aws_s3_bucket_object.lambda_archive (expand) -->
<g id="node20" class="node">
<title>[root] aws_s3_bucket_object.lambda_archive (expand)</title>
<polygon fill="none" stroke="black" points="1361,-180 1124,-180 1124,-144 1361,-144 1361,-180"/>
<text text-anchor="middle" x="1242.5" y="-158.3" font-family="Times New Roman,serif" font-size="14.00">aws_s3_bucket_object.lambda_archive</text>
</g>
<!-- [root] aws_lambda_function.lambda (expand)&#45;&gt;[root] aws_s3_bucket_object.lambda_archive (expand) -->
<g id="edge23" class="edge">
<title>[root] aws_lambda_function.lambda (expand)&#45;&gt;[root] aws_s3_bucket_object.lambda_archive (expand)</title>
<path fill="none" stroke="black" d="M1248.52,-215.7C1247.64,-207.98 1246.58,-198.71 1245.6,-190.11"/>
<polygon fill="black" stroke="black" points="1249.07,-189.64 1244.45,-180.1 1242.11,-190.44 1249.07,-189.64"/>
</g>
<!-- [root] aws_s3_bucket.lambda_source_bucket (expand) -->
<g id="node19" class="node">
<title>[root] aws_s3_bucket.lambda_source_bucket (expand)</title>
<polygon fill="none" stroke="black" points="1353.5,-108 1115.5,-108 1115.5,-72 1353.5,-72 1353.5,-108"/>
<text text-anchor="middle" x="1234.5" y="-86.3" font-family="Times New Roman,serif" font-size="14.00">aws_s3_bucket.lambda_source_bucket</text>
</g>
<!-- [root] aws_s3_bucket.lambda_source_bucket (expand)&#45;&gt;[root] provider[&quot;registry.terraform.io/hashicorp/aws&quot;] -->
<g id="edge24" class="edge">
<title>[root] aws_s3_bucket.lambda_source_bucket (expand)&#45;&gt;[root] provider[&quot;registry.terraform.io/hashicorp/aws&quot;]</title>
<path fill="none" stroke="black" d="M1155.17,-71.97C1101.08,-60.35 1030.12,-45.11 978.2,-33.97"/>
<polygon fill="black" stroke="black" points="978.92,-30.54 968.41,-31.86 977.45,-37.39 978.92,-30.54"/>
</g>
<!-- [root] aws_s3_bucket_object.lambda_archive (expand)&#45;&gt;[root] aws_s3_bucket.lambda_source_bucket (expand) -->
<g id="edge25" class="edge">
<title>[root] aws_s3_bucket_object.lambda_archive (expand)&#45;&gt;[root] aws_s3_bucket.lambda_source_bucket (expand)</title>
<path fill="none" stroke="black" d="M1240.52,-143.7C1239.64,-135.98 1238.58,-126.71 1237.6,-118.11"/>
<polygon fill="black" stroke="black" points="1241.07,-117.64 1236.45,-108.1 1234.11,-118.44 1241.07,-117.64"/>
</g>
<!-- [root] output.invoke&#45;url -->
<g id="node21" class="node">
<title>[root] output.invoke&#45;url</title>
<polygon fill="none" stroke="black" points="2233.5,-612 2127.5,-612 2127.5,-576 2239.5,-576 2239.5,-606 2233.5,-612"/>
<polyline fill="none" stroke="black" points="2233.5,-612 2233.5,-606 "/>
<polyline fill="none" stroke="black" points="2239.5,-606 2233.5,-606 "/>
<text text-anchor="middle" x="2183.5" y="-590.3" font-family="Times New Roman,serif" font-size="14.00">output.invoke&#45;url</text>
</g>
<!-- [root] output.invoke&#45;url&#45;&gt;[root] aws_api_gateway_stage.api_gateway_stage (expand) -->
<g id="edge32" class="edge">
<title>[root] output.invoke&#45;url&#45;&gt;[root] aws_api_gateway_stage.api_gateway_stage (expand)</title>
<path fill="none" stroke="black" d="M2127.4,-578.07C2088.72,-567.77 2036.88,-553.98 1994.77,-542.77"/>
<polygon fill="black" stroke="black" points="1995.4,-539.31 1984.84,-540.12 1993.6,-546.08 1995.4,-539.31"/>
</g>
<!-- [root] meta.count&#45;boundary (EachMode fixup) -->
<g id="node23" class="node">
<title>[root] meta.count&#45;boundary (EachMode fixup)</title>
<ellipse fill="none" stroke="black" cx="1416.5" cy="-666" rx="180.87" ry="18"/>
<text text-anchor="middle" x="1416.5" y="-662.3" font-family="Times New Roman,serif" font-size="14.00">[root] meta.count&#45;boundary (EachMode fixup)</text>
</g>
<!-- [root] meta.count&#45;boundary (EachMode fixup)&#45;&gt;[root] aws_api_gateway_account.api_gateway_account (expand) -->
<g id="edge26" class="edge">
<title>[root] meta.count&#45;boundary (EachMode fixup)&#45;&gt;[root] aws_api_gateway_account.api_gateway_account (expand)</title>
<path fill="none" stroke="black" d="M1288.42,-653.29C1268.04,-651.48 1247.2,-649.66 1227.5,-648 1028.62,-631.19 976.13,-631.13 774.43,-612.17"/>
<polygon fill="black" stroke="black" points="774.68,-608.68 764.4,-611.22 774.02,-615.65 774.68,-608.68"/>
</g>
<!-- [root] meta.count&#45;boundary (EachMode fixup)&#45;&gt;[root] aws_api_gateway_method_settings.api&#45;gateway&#45;method&#45;settings (expand) -->
<g id="edge27" class="edge">
<title>[root] meta.count&#45;boundary (EachMode fixup)&#45;&gt;[root] aws_api_gateway_method_settings.api&#45;gateway&#45;method&#45;settings (expand)</title>
<path fill="none" stroke="black" d="M1517.28,-651C1595.07,-640.2 1703.36,-625.16 1788.13,-613.39"/>
<polygon fill="black" stroke="black" points="1788.66,-616.84 1798.08,-612 1787.7,-609.91 1788.66,-616.84"/>
</g>
<!-- [root] meta.count&#45;boundary (EachMode fixup)&#45;&gt;[root] aws_iam_role_policy_attachment.apigateway_role_policy_attachment (expand) -->
<g id="edge28" class="edge">
<title>[root] meta.count&#45;boundary (EachMode fixup)&#45;&gt;[root] aws_iam_role_policy_attachment.apigateway_role_policy_attachment (expand)</title>
<path fill="none" stroke="black" d="M1326.41,-650.37C1260.79,-639.71 1171.37,-625.19 1100.57,-613.69"/>
<polygon fill="black" stroke="black" points="1100.7,-610.16 1090.27,-612.02 1099.58,-617.07 1100.7,-610.16"/>
</g>
<!-- [root] meta.count&#45;boundary (EachMode fixup)&#45;&gt;[root] aws_iam_role_policy_attachment.lambda_apigateway_role_policy_attachment (expand) -->
<g id="edge29" class="edge">
<title>[root] meta.count&#45;boundary (EachMode fixup)&#45;&gt;[root] aws_iam_role_policy_attachment.lambda_apigateway_role_policy_attachment (expand)</title>
<path fill="none" stroke="black" d="M1291.51,-653C1270.17,-651.17 1248.21,-649.42 1227.5,-648 891.67,-625 804.53,-632.07 465.26,-612.1"/>
<polygon fill="black" stroke="black" points="465.33,-608.59 455.14,-611.5 464.92,-615.58 465.33,-608.59"/>
</g>
<!-- [root] meta.count&#45;boundary (EachMode fixup)&#45;&gt;[root] aws_iam_role_policy_attachment.rest_api_role_policy_attachment_TfTokenTOKEN12 (expand) -->
<g id="edge30" class="edge">
<title>[root] meta.count&#45;boundary (EachMode fixup)&#45;&gt;[root] aws_iam_role_policy_attachment.rest_api_role_policy_attachment_TfTokenTOKEN12 (expand)</title>
<path fill="none" stroke="black" d="M1427.38,-647.7C1432.49,-639.56 1438.7,-629.69 1444.34,-620.7"/>
<polygon fill="black" stroke="black" points="1447.39,-622.43 1449.75,-612.1 1441.46,-618.71 1447.39,-622.43"/>
</g>
<!-- [root] meta.count&#45;boundary (EachMode fixup)&#45;&gt;[root] output.invoke&#45;url -->
<g id="edge31" class="edge">
<title>[root] meta.count&#45;boundary (EachMode fixup)&#45;&gt;[root] output.invoke&#45;url</title>
<path fill="none" stroke="black" d="M1589.2,-660.64C1729.43,-655.06 1932.21,-642.37 2117.34,-612.02"/>
<polygon fill="black" stroke="black" points="2117.97,-615.46 2127.26,-610.37 2116.83,-608.56 2117.97,-615.46"/>
</g>
<!-- [root] provider[&quot;registry.terraform.io/hashicorp/aws&quot;] (close) -->
<g id="node24" class="node">
<title>[root] provider[&quot;registry.terraform.io/hashicorp/aws&quot;] (close)</title>
<ellipse fill="none" stroke="black" cx="985.5" cy="-666" rx="232.86" ry="18"/>
<text text-anchor="middle" x="985.5" y="-662.3" font-family="Times New Roman,serif" font-size="14.00">[root] provider[&quot;registry.terraform.io/hashicorp/aws&quot;] (close)</text>
</g>
<!-- [root] provider[&quot;registry.terraform.io/hashicorp/aws&quot;] (close)&#45;&gt;[root] aws_api_gateway_account.api_gateway_account (expand) -->
<g id="edge33" class="edge">
<title>[root] provider[&quot;registry.terraform.io/hashicorp/aws&quot;] (close)&#45;&gt;[root] aws_api_gateway_account.api_gateway_account (expand)</title>
<path fill="none" stroke="black" d="M902.22,-649.12C847.44,-638.67 775.48,-624.94 717.73,-613.93"/>
<polygon fill="black" stroke="black" points="718.34,-610.48 707.86,-612.04 717.03,-617.36 718.34,-610.48"/>
</g>
<!-- [root] provider[&quot;registry.terraform.io/hashicorp/aws&quot;] (close)&#45;&gt;[root] aws_api_gateway_method_settings.api&#45;gateway&#45;method&#45;settings (expand) -->
<g id="edge34" class="edge">
<title>[root] provider[&quot;registry.terraform.io/hashicorp/aws&quot;] (close)&#45;&gt;[root] aws_api_gateway_method_settings.api&#45;gateway&#45;method&#45;settings (expand)</title>
<path fill="none" stroke="black" d="M1150.46,-653.28C1341.57,-639.68 1639.82,-618.4 1721.69,-612.12"/>
<polygon fill="black" stroke="black" points="1722.07,-615.61 1731.77,-611.34 1721.53,-608.63 1722.07,-615.61"/>
</g>
<!-- [root] provider[&quot;registry.terraform.io/hashicorp/aws&quot;] (close)&#45;&gt;[root] aws_iam_role_policy_attachment.apigateway_role_policy_attachment (expand) -->
<g id="edge35" class="edge">
<title>[root] provider[&quot;registry.terraform.io/hashicorp/aws&quot;] (close)&#45;&gt;[root] aws_iam_role_policy_attachment.apigateway_role_policy_attachment (expand)</title>
<path fill="none" stroke="black" d="M985.5,-647.7C985.5,-639.98 985.5,-630.71 985.5,-622.11"/>
<polygon fill="black" stroke="black" points="989,-622.1 985.5,-612.1 982,-622.1 989,-622.1"/>
</g>
<!-- [root] provider[&quot;registry.terraform.io/hashicorp/aws&quot;] (close)&#45;&gt;[root] aws_iam_role_policy_attachment.lambda_apigateway_role_policy_attachment (expand) -->
<g id="edge36" class="edge">
<title>[root] provider[&quot;registry.terraform.io/hashicorp/aws&quot;] (close)&#45;&gt;[root] aws_iam_role_policy_attachment.lambda_apigateway_role_policy_attachment (expand)</title>
<path fill="none" stroke="black" d="M842.48,-651.79C723.63,-640.82 553.34,-625.09 422.09,-612.97"/>
<polygon fill="black" stroke="black" points="422.19,-609.46 411.91,-612.03 421.54,-616.43 422.19,-609.46"/>
</g>
<!-- [root] provider[&quot;registry.terraform.io/hashicorp/aws&quot;] (close)&#45;&gt;[root] aws_iam_role_policy_attachment.rest_api_role_policy_attachment_TfTokenTOKEN12 (expand) -->
<g id="edge37" class="edge">
<title>[root] provider[&quot;registry.terraform.io/hashicorp/aws&quot;] (close)&#45;&gt;[root] aws_iam_role_policy_attachment.rest_api_role_policy_attachment_TfTokenTOKEN12 (expand)</title>
<path fill="none" stroke="black" d="M1088.57,-649.81C1160.9,-639.15 1258.04,-624.84 1334.91,-613.51"/>
<polygon fill="black" stroke="black" points="1335.75,-616.92 1345.13,-612 1334.73,-610 1335.75,-616.92"/>
</g>
<!-- [root] root -->
<g id="node25" class="node">
<title>[root] root</title>
<ellipse fill="none" stroke="black" cx="1200.5" cy="-738" rx="49.29" ry="18"/>
<text text-anchor="middle" x="1200.5" y="-734.3" font-family="Times New Roman,serif" font-size="14.00">[root] root</text>
</g>
<!-- [root] root&#45;&gt;[root] meta.count&#45;boundary (EachMode fixup) -->
<g id="edge38" class="edge">
<title>[root] root&#45;&gt;[root] meta.count&#45;boundary (EachMode fixup)</title>
<path fill="none" stroke="black" d="M1236.17,-725.44C1268.87,-714.84 1317.93,-698.94 1356.63,-686.4"/>
<polygon fill="black" stroke="black" points="1357.8,-689.7 1366.23,-683.29 1355.64,-683.04 1357.8,-689.7"/>
</g>
<!-- [root] root&#45;&gt;[root] provider[&quot;registry.terraform.io/hashicorp/aws&quot;] (close) -->
<g id="edge39" class="edge">
<title>[root] root&#45;&gt;[root] provider[&quot;registry.terraform.io/hashicorp/aws&quot;] (close)</title>
<path fill="none" stroke="black" d="M1165,-725.44C1132.78,-714.95 1084.6,-699.27 1046.26,-686.78"/>
<polygon fill="black" stroke="black" points="1047.34,-683.45 1036.75,-683.68 1045.17,-690.11 1047.34,-683.45"/>
</g>
</g>
</svg>
