<?xml version="1.0" encoding="UTF-8" standalone="no"?>
<!DOCTYPE svg PUBLIC "-//W3C//DTD SVG 1.1//EN"
 "http://www.w3.org/Graphics/SVG/1.1/DTD/svg11.dtd">
<!-- Generated by graphviz version 2.49.3 (20211023.0002)
 -->
<!-- Pages: 1 -->
<svg width="1065pt" height="476pt"
 viewBox="0.00 0.00 1065.18 476.00" xmlns="http://www.w3.org/2000/svg" xmlns:xlink="http://www.w3.org/1999/xlink">
<g id="graph0" class="graph" transform="scale(1 1) rotate(0) translate(4 472)">
<polygon fill="white" stroke="transparent" points="-4,4 -4,-472 1061.18,-472 1061.18,4 -4,4"/>
<!-- [root] aws_api_gateway_integration.api_gateway_integration (expand) -->
<g id="node1" class="node">
<title>[root] aws_api_gateway_integration.api_gateway_integration (expand)</title>
<polygon fill="none" stroke="black" points="576.5,-324 258.5,-324 258.5,-288 576.5,-288 576.5,-324"/>
<text text-anchor="middle" x="417.5" y="-302.3" font-family="Times New Roman,serif" font-size="14.00">aws_api_gateway_integration.api_gateway_integration</text>
</g>
<!-- [root] aws_api_gateway_method.api_gateway_method_post (expand) -->
<g id="node2" class="node">
<title>[root] aws_api_gateway_method.api_gateway_method_post (expand)</title>
<polygon fill="none" stroke="black" points="319,-252 0,-252 0,-216 319,-216 319,-252"/>
<text text-anchor="middle" x="159.5" y="-230.3" font-family="Times New Roman,serif" font-size="14.00">aws_api_gateway_method.api_gateway_method_post</text>
</g>
<!-- [root] aws_api_gateway_integration.api_gateway_integration (expand)&#45;&gt;[root] aws_api_gateway_method.api_gateway_method_post (expand) -->
<g id="edge1" class="edge">
<title>[root] aws_api_gateway_integration.api_gateway_integration (expand)&#45;&gt;[root] aws_api_gateway_method.api_gateway_method_post (expand)</title>
<path fill="none" stroke="black" d="M354.72,-287.97C317.88,-277.97 271.17,-265.3 232.68,-254.85"/>
<polygon fill="black" stroke="black" points="233.13,-251.35 222.57,-252.11 231.3,-258.11 233.13,-251.35"/>
</g>
<!-- [root] aws_lambda_function.lambda (expand) -->
<g id="node7" class="node">
<title>[root] aws_lambda_function.lambda (expand)</title>
<polygon fill="none" stroke="black" points="521.5,-252 337.5,-252 337.5,-216 521.5,-216 521.5,-252"/>
<text text-anchor="middle" x="429.5" y="-230.3" font-family="Times New Roman,serif" font-size="14.00">aws_lambda_function.lambda</text>
</g>
<!-- [root] aws_api_gateway_integration.api_gateway_integration (expand)&#45;&gt;[root] aws_lambda_function.lambda (expand) -->
<g id="edge2" class="edge">
<title>[root] aws_api_gateway_integration.api_gateway_integration (expand)&#45;&gt;[root] aws_lambda_function.lambda (expand)</title>
<path fill="none" stroke="black" d="M420.47,-287.7C421.79,-279.98 423.38,-270.71 424.85,-262.11"/>
<polygon fill="black" stroke="black" points="428.33,-262.55 426.57,-252.1 421.43,-261.37 428.33,-262.55"/>
</g>
<!-- [root] aws_api_gateway_resource.api_gateway_resource (expand) -->
<g id="node3" class="node">
<title>[root] aws_api_gateway_resource.api_gateway_resource (expand)</title>
<polygon fill="none" stroke="black" points="309,-180 10,-180 10,-144 309,-144 309,-180"/>
<text text-anchor="middle" x="159.5" y="-158.3" font-family="Times New Roman,serif" font-size="14.00">aws_api_gateway_resource.api_gateway_resource</text>
</g>
<!-- [root] aws_api_gateway_method.api_gateway_method_post (expand)&#45;&gt;[root] aws_api_gateway_resource.api_gateway_resource (expand) -->
<g id="edge3" class="edge">
<title>[root] aws_api_gateway_method.api_gateway_method_post (expand)&#45;&gt;[root] aws_api_gateway_resource.api_gateway_resource (expand)</title>
<path fill="none" stroke="black" d="M159.5,-215.7C159.5,-207.98 159.5,-198.71 159.5,-190.11"/>
<polygon fill="black" stroke="black" points="163,-190.1 159.5,-180.1 156,-190.1 163,-190.1"/>
</g>
<!-- [root] aws_api_gateway_rest_api.api_gateway (expand) -->
<g id="node4" class="node">
<title>[root] aws_api_gateway_rest_api.api_gateway (expand)</title>
<polygon fill="none" stroke="black" points="279,-108 40,-108 40,-72 279,-72 279,-108"/>
<text text-anchor="middle" x="159.5" y="-86.3" font-family="Times New Roman,serif" font-size="14.00">aws_api_gateway_rest_api.api_gateway</text>
</g>
<!-- [root] aws_api_gateway_resource.api_gateway_resource (expand)&#45;&gt;[root] aws_api_gateway_rest_api.api_gateway (expand) -->
<g id="edge4" class="edge">
<title>[root] aws_api_gateway_resource.api_gateway_resource (expand)&#45;&gt;[root] aws_api_gateway_rest_api.api_gateway (expand)</title>
<path fill="none" stroke="black" d="M159.5,-143.7C159.5,-135.98 159.5,-126.71 159.5,-118.11"/>
<polygon fill="black" stroke="black" points="163,-118.1 159.5,-108.1 156,-118.1 163,-118.1"/>
</g>
<!-- [root] provider[&quot;registry.terraform.io/hashicorp/aws&quot;] -->
<g id="node10" class="node">
<title>[root] provider[&quot;registry.terraform.io/hashicorp/aws&quot;]</title>
<polygon fill="none" stroke="black" points="538.5,-36 281.27,-18 538.5,0 795.73,-18 538.5,-36"/>
<text text-anchor="middle" x="538.5" y="-14.3" font-family="Times New Roman,serif" font-size="14.00">provider[&quot;registry.terraform.io/hashicorp/aws&quot;]</text>
</g>
<!-- [root] aws_api_gateway_rest_api.api_gateway (expand)&#45;&gt;[root] provider[&quot;registry.terraform.io/hashicorp/aws&quot;] -->
<g id="edge5" class="edge">
<title>[root] aws_api_gateway_rest_api.api_gateway (expand)&#45;&gt;[root] provider[&quot;registry.terraform.io/hashicorp/aws&quot;]</title>
<path fill="none" stroke="black" d="M251.73,-71.97C316.07,-60.08 400.94,-44.41 461.63,-33.2"/>
<polygon fill="black" stroke="black" points="462.33,-36.63 471.53,-31.37 461.06,-29.74 462.33,-36.63"/>
</g>
<!-- [root] aws_iam_policy.lambda_apigateway_policy (expand) -->
<g id="node5" class="node">
<title>[root] aws_iam_policy.lambda_apigateway_policy (expand)</title>
<polygon fill="none" stroke="black" points="943,-324 680,-324 680,-288 943,-288 943,-324"/>
<text text-anchor="middle" x="811.5" y="-302.3" font-family="Times New Roman,serif" font-size="14.00">aws_iam_policy.lambda_apigateway_policy</text>
</g>
<!-- [root] aws_iam_policy.lambda_apigateway_policy (expand)&#45;&gt;[root] provider[&quot;registry.terraform.io/hashicorp/aws&quot;] -->
<g id="edge6" class="edge">
<title>[root] aws_iam_policy.lambda_apigateway_policy (expand)&#45;&gt;[root] provider[&quot;registry.terraform.io/hashicorp/aws&quot;]</title>
<path fill="none" stroke="black" d="M816.25,-287.75C826.83,-245.17 847.29,-134.07 792.5,-72 773.86,-50.89 712.86,-37.76 655.3,-29.85"/>
<polygon fill="black" stroke="black" points="655.73,-26.37 645.36,-28.53 654.81,-33.31 655.73,-26.37"/>
</g>
<!-- [root] aws_iam_role.lambda&#45;apigateway&#45;role (expand) -->
<g id="node6" class="node">
<title>[root] aws_iam_role.lambda&#45;apigateway&#45;role (expand)</title>
<polygon fill="none" stroke="black" points="527.5,-108 297.5,-108 297.5,-72 527.5,-72 527.5,-108"/>
<text text-anchor="middle" x="412.5" y="-86.3" font-family="Times New Roman,serif" font-size="14.00">aws_iam_role.lambda&#45;apigateway&#45;role</text>
</g>
<!-- [root] aws_iam_role.lambda&#45;apigateway&#45;role (expand)&#45;&gt;[root] provider[&quot;registry.terraform.io/hashicorp/aws&quot;] -->
<g id="edge7" class="edge">
<title>[root] aws_iam_role.lambda&#45;apigateway&#45;role (expand)&#45;&gt;[root] provider[&quot;registry.terraform.io/hashicorp/aws&quot;]</title>
<path fill="none" stroke="black" d="M443.32,-71.88C461.1,-62 483.56,-49.52 502.19,-39.17"/>
<polygon fill="black" stroke="black" points="503.96,-42.2 511,-34.28 500.56,-36.08 503.96,-42.2"/>
</g>
<!-- [root] aws_lambda_function.lambda (expand)&#45;&gt;[root] aws_iam_role.lambda&#45;apigateway&#45;role (expand) -->
<g id="edge8" class="edge">
<title>[root] aws_lambda_function.lambda (expand)&#45;&gt;[root] aws_iam_role.lambda&#45;apigateway&#45;role (expand)</title>
<path fill="none" stroke="black" d="M427.45,-215.87C424.55,-191.67 419.23,-147.21 415.78,-118.39"/>
<polygon fill="black" stroke="black" points="419.22,-117.7 414.56,-108.19 412.27,-118.53 419.22,-117.7"/>
</g>
<!-- [root] aws_s3_bucket_object.lambda&#45;archive (expand) -->
<g id="node9" class="node">
<title>[root] aws_s3_bucket_object.lambda&#45;archive (expand)</title>
<polygon fill="none" stroke="black" points="728.5,-180 494.5,-180 494.5,-144 728.5,-144 728.5,-180"/>
<text text-anchor="middle" x="611.5" y="-158.3" font-family="Times New Roman,serif" font-size="14.00">aws_s3_bucket_object.lambda&#45;archive</text>
</g>
<!-- [root] aws_lambda_function.lambda (expand)&#45;&gt;[root] aws_s3_bucket_object.lambda&#45;archive (expand) -->
<g id="edge9" class="edge">
<title>[root] aws_lambda_function.lambda (expand)&#45;&gt;[root] aws_s3_bucket_object.lambda&#45;archive (expand)</title>
<path fill="none" stroke="black" d="M474.02,-215.88C499.23,-206.18 530.95,-193.98 557.57,-183.74"/>
<polygon fill="black" stroke="black" points="559.05,-186.92 567.12,-180.07 556.53,-180.39 559.05,-186.92"/>
</g>
<!-- [root] aws_s3_bucket.lambda_source_bucket (expand) -->
<g id="node8" class="node">
<title>[root] aws_s3_bucket.lambda_source_bucket (expand)</title>
<polygon fill="none" stroke="black" points="783.5,-108 545.5,-108 545.5,-72 783.5,-72 783.5,-108"/>
<text text-anchor="middle" x="664.5" y="-86.3" font-family="Times New Roman,serif" font-size="14.00">aws_s3_bucket.lambda_source_bucket</text>
</g>
<!-- [root] aws_s3_bucket.lambda_source_bucket (expand)&#45;&gt;[root] provider[&quot;registry.terraform.io/hashicorp/aws&quot;] -->
<g id="edge10" class="edge">
<title>[root] aws_s3_bucket.lambda_source_bucket (expand)&#45;&gt;[root] provider[&quot;registry.terraform.io/hashicorp/aws&quot;]</title>
<path fill="none" stroke="black" d="M633.68,-71.88C615.9,-62 593.44,-49.52 574.81,-39.17"/>
<polygon fill="black" stroke="black" points="576.44,-36.08 566,-34.28 573.04,-42.2 576.44,-36.08"/>
</g>
<!-- [root] aws_s3_bucket_object.lambda&#45;archive (expand)&#45;&gt;[root] aws_s3_bucket.lambda_source_bucket (expand) -->
<g id="edge11" class="edge">
<title>[root] aws_s3_bucket_object.lambda&#45;archive (expand)&#45;&gt;[root] aws_s3_bucket.lambda_source_bucket (expand)</title>
<path fill="none" stroke="black" d="M624.6,-143.7C630.89,-135.39 638.55,-125.28 645.46,-116.14"/>
<polygon fill="black" stroke="black" points="648.3,-118.19 651.55,-108.1 642.72,-113.96 648.3,-118.19"/>
</g>
<!-- [root] meta.count&#45;boundary (EachMode fixup) -->
<g id="node11" class="node">
<title>[root] meta.count&#45;boundary (EachMode fixup)</title>
<ellipse fill="none" stroke="black" cx="393.5" cy="-378" rx="180.87" ry="18"/>
<text text-anchor="middle" x="393.5" y="-374.3" font-family="Times New Roman,serif" font-size="14.00">[root] meta.count&#45;boundary (EachMode fixup)</text>
</g>
<!-- [root] meta.count&#45;boundary (EachMode fixup)&#45;&gt;[root] aws_api_gateway_integration.api_gateway_integration (expand) -->
<g id="edge12" class="edge">
<title>[root] meta.count&#45;boundary (EachMode fixup)&#45;&gt;[root] aws_api_gateway_integration.api_gateway_integration (expand)</title>
<path fill="none" stroke="black" d="M399.43,-359.7C402.11,-351.9 405.33,-342.51 408.3,-333.83"/>
<polygon fill="black" stroke="black" points="411.7,-334.7 411.64,-324.1 405.08,-332.43 411.7,-334.7"/>
</g>
<!-- [root] meta.count&#45;boundary (EachMode fixup)&#45;&gt;[root] aws_iam_policy.lambda_apigateway_policy (expand) -->
<g id="edge13" class="edge">
<title>[root] meta.count&#45;boundary (EachMode fixup)&#45;&gt;[root] aws_iam_policy.lambda_apigateway_policy (expand)</title>
<path fill="none" stroke="black" d="M481.64,-362.24C545.22,-351.59 631.53,-337.14 699.92,-325.69"/>
<polygon fill="black" stroke="black" points="700.59,-329.12 709.88,-324.02 699.44,-322.22 700.59,-329.12"/>
</g>
<!-- [root] provider[&quot;registry.terraform.io/hashicorp/aws&quot;] (close) -->
<g id="node12" class="node">
<title>[root] provider[&quot;registry.terraform.io/hashicorp/aws&quot;] (close)</title>
<ellipse fill="none" stroke="black" cx="824.5" cy="-378" rx="232.86" ry="18"/>
<text text-anchor="middle" x="824.5" y="-374.3" font-family="Times New Roman,serif" font-size="14.00">[root] provider[&quot;registry.terraform.io/hashicorp/aws&quot;] (close)</text>
</g>
<!-- [root] provider[&quot;registry.terraform.io/hashicorp/aws&quot;] (close)&#45;&gt;[root] aws_api_gateway_integration.api_gateway_integration (expand) -->
<g id="edge14" class="edge">
<title>[root] provider[&quot;registry.terraform.io/hashicorp/aws&quot;] (close)&#45;&gt;[root] aws_api_gateway_integration.api_gateway_integration (expand)</title>
<path fill="none" stroke="black" d="M733.67,-361.38C672.51,-350.86 591.53,-336.93 526.84,-325.81"/>
<polygon fill="black" stroke="black" points="527.05,-322.29 516.6,-324.04 525.86,-329.19 527.05,-322.29"/>
</g>
<!-- [root] provider[&quot;registry.terraform.io/hashicorp/aws&quot;] (close)&#45;&gt;[root] aws_iam_policy.lambda_apigateway_policy (expand) -->
<g id="edge15" class="edge">
<title>[root] provider[&quot;registry.terraform.io/hashicorp/aws&quot;] (close)&#45;&gt;[root] aws_iam_policy.lambda_apigateway_policy (expand)</title>
<path fill="none" stroke="black" d="M821.29,-359.7C819.85,-351.98 818.13,-342.71 816.54,-334.11"/>
<polygon fill="black" stroke="black" points="819.94,-333.3 814.68,-324.1 813.06,-334.58 819.94,-333.3"/>
</g>
<!-- [root] root -->
<g id="node13" class="node">
<title>[root] root</title>
<ellipse fill="none" stroke="black" cx="608.5" cy="-450" rx="49.29" ry="18"/>
<text text-anchor="middle" x="608.5" y="-446.3" font-family="Times New Roman,serif" font-size="14.00">[root] root</text>
</g>
<!-- [root] root&#45;&gt;[root] meta.count&#45;boundary (EachMode fixup) -->
<g id="edge16" class="edge">
<title>[root] root&#45;&gt;[root] meta.count&#45;boundary (EachMode fixup)</title>
<path fill="none" stroke="black" d="M573,-437.44C540.56,-426.88 491.94,-411.05 453.48,-398.53"/>
<polygon fill="black" stroke="black" points="454.53,-395.19 443.94,-395.42 452.36,-401.85 454.53,-395.19"/>
</g>
<!-- [root] root&#45;&gt;[root] provider[&quot;registry.terraform.io/hashicorp/aws&quot;] (close) -->
<g id="edge17" class="edge">
<title>[root] root&#45;&gt;[root] provider[&quot;registry.terraform.io/hashicorp/aws&quot;] (close)</title>
<path fill="none" stroke="black" d="M644.17,-437.44C676.53,-426.95 724.94,-411.27 763.45,-398.78"/>
<polygon fill="black" stroke="black" points="764.58,-402.1 773.02,-395.68 762.42,-395.44 764.58,-402.1"/>
</g>
</g>
</svg>
