<?xml version="1.0" standalone="no"?>
<!DOCTYPE svg PUBLIC "-//W3C//DTD SVG 20010904//EN"
 "http://www.w3.org/TR/2001/REC-SVG-20010904/DTD/svg10.dtd">
<svg version="1.0" xmlns="http://www.w3.org/2000/svg"
 width="280.000000pt" height="280.000000pt" viewBox="0 0 280.000000 280.000000"
 preserveAspectRatio="xMidYMid meet">
<metadata>
Created by potrace 1.14, written by Peter Selinger 2001-2017
</metadata>
<g transform="translate(0.000000,280.000000) scale(0.100000,-0.100000)"
fill="#000000" stroke="none">
<path d="M1460 2760 c8 -5 20 -10 25 -10 6 0 3 5 -5 10 -8 5 -19 10 -25 10 -5
0 -3 -5 5 -10z"/>
<path d="M1105 2744 c-6 -8 -20 -16 -31 -17 -14 -1 -27 -13 -37 -34 -8 -18
-11 -33 -6 -33 5 0 9 4 9 8 0 4 14 13 31 19 17 7 28 16 25 21 -3 6 1 13 10 16
8 3 12 2 9 -4 -8 -12 15 -13 34 -1 10 7 19 4 27 -7 11 -14 16 -15 33 -4 17 10
21 10 21 -1 0 -8 18 -13 52 -15 28 -1 54 -6 57 -11 4 -5 24 -12 46 -17 22 -4
51 -15 64 -25 13 -11 30 -19 37 -19 8 0 14 -7 14 -15 0 -8 -4 -15 -10 -15 -5
0 -10 -4 -10 -10 0 -5 11 -10 25 -10 36 0 75 -22 112 -65 32 -36 71 -45 80
-19 2 7 -6 10 -22 7 -18 -4 -25 -1 -25 11 0 18 15 22 25 6 4 -6 11 -8 16 -5 5
4 15 3 22 -2 23 -14 41 -12 78 9 38 21 55 21 134 -2 22 -6 49 -11 60 -11 11 0
39 1 62 2 24 0 52 -6 65 -15 12 -9 33 -16 45 -16 25 0 27 -3 83 -78 48 -65 85
-141 124 -256 33 -96 53 -120 49 -59 -3 62 -11 92 -27 109 -9 8 -16 25 -16 37
0 12 -6 34 -14 48 -7 14 -16 37 -20 52 -3 15 -11 27 -16 27 -6 0 -10 6 -10 14
0 26 -51 116 -66 116 -7 0 -13 5 -11 11 5 27 -190 148 -323 199 -30 11 -77 23
-105 26 -27 3 -54 9 -60 12 -12 7 -76 13 -125 11 -37 -1 -134 -1 -185 2 -49 2
-129 -6 -142 -14 -7 -4 -22 -3 -33 3 -14 7 -26 8 -39 0 -27 -14 -52 -13 -31 1
13 9 13 10 0 8 -8 -1 -28 3 -43 9 -35 15 -30 15 -42 -4z m405 -28 c0 -3 -4 -8
-10 -11 -5 -3 -10 -1 -10 4 0 6 5 11 10 11 6 0 10 -2 10 -4z"/>
<path d="M975 2650 c-20 -22 -16 -34 9 -24 9 3 16 15 16 25 0 24 -3 24 -25 -1z"/>
<path d="M930 2630 c0 -5 -8 -10 -18 -10 -10 0 -19 -7 -19 -14 0 -11 5 -12 17
-6 10 5 20 6 24 3 3 -3 6 3 6 15 0 12 -2 22 -5 22 -3 0 -5 -4 -5 -10z"/>
<path d="M870 2570 c-8 -6 -10 -10 -5 -10 6 0 3 -5 -5 -10 -8 -5 -10 -10 -4
-10 13 0 39 28 33 35 -3 2 -11 0 -19 -5z"/>
<path d="M790 2510 c0 -5 5 -10 10 -10 6 0 10 5 10 10 0 6 -4 10 -10 10 -5 0
-10 -4 -10 -10z"/>
<path d="M1180 1993 c-93 -14 -143 -37 -204 -95 -29 -28 -29 -28 -5 -28 18 0
20 -3 11 -12 -18 -18 -15 -28 8 -28 11 0 20 -7 20 -15 0 -9 11 -21 25 -27 14
-6 25 -17 25 -25 0 -7 9 -13 20 -13 31 0 24 -15 -15 -28 -21 -8 -32 -18 -29
-26 7 -18 -97 -70 -123 -62 -12 3 -24 -3 -36 -19 -20 -27 -16 -31 12 -13 14 9
27 8 60 -5 26 -11 41 -13 41 -6 0 6 6 9 13 6 6 -2 11 -10 9 -16 -1 -6 5 -14
13 -17 18 -7 20 -34 3 -35 -38 -3 -77 5 -107 22 l-33 20 7 -28 c3 -15 11 -31
17 -34 5 -3 8 -14 6 -24 -2 -11 6 -21 20 -26 14 -5 21 -5 17 0 -3 5 5 13 17
17 13 4 24 2 26 -4 2 -6 15 -4 35 6 31 16 148 28 197 20 24 -3 24 -4 -10 -22
-19 -10 -37 -22 -40 -26 -11 -15 -36 -16 -47 -1 -11 14 -14 14 -28 -6 -18 -26
-36 -29 -65 -10 -17 10 -22 9 -30 -3 -13 -20 -7 -35 13 -35 8 0 19 -4 23 -8
26 -25 178 18 189 54 4 11 11 19 17 19 6 0 26 14 45 30 29 25 42 30 88 30 65
0 75 12 82 105 4 48 1 70 -16 104 -21 44 -20 61 3 61 7 0 25 11 41 24 l28 24
-19 34 c-11 18 -29 37 -41 43 -12 5 -25 20 -28 34 -5 19 -8 22 -15 11 -7 -11
-15 -12 -47 -1 -21 6 -60 16 -88 20 -27 5 -57 11 -65 13 -8 3 -26 3 -40 1z
m-145 -363 c3 -5 1 -10 -4 -10 -6 0 -11 5 -11 10 0 6 2 10 4 10 3 0 8 -4 11
-10z"/>
<path d="M1842 1910 c-7 -11 -21 -20 -32 -20 -11 0 -20 -5 -20 -11 0 -5 -4 -8
-9 -4 -5 3 -12 -4 -16 -15 -4 -11 -10 -18 -14 -16 -17 11 -34 -15 -36 -55 -7
-106 -18 -159 -36 -175 -24 -22 -24 -31 1 -39 14 -4 20 -15 20 -36 0 -24 -4
-29 -23 -29 -12 0 -33 7 -45 16 -12 8 -28 13 -35 11 -6 -3 3 -11 21 -18 34
-14 39 -36 6 -31 -35 7 0 -15 52 -31 27 -9 61 -13 73 -10 21 5 23 3 17 -18 -3
-13 -3 -18 0 -11 3 6 14 12 24 12 22 0 38 19 18 21 -7 1 -16 1 -20 0 -5 0 -8
3 -8 9 0 5 -8 10 -17 10 -12 0 -14 3 -6 11 13 13 61 -10 82 -39 8 -11 20 -18
27 -15 8 3 36 -9 64 -26 28 -17 56 -31 63 -31 17 -1 47 -25 47 -39 0 -6 6 -11
13 -12 6 0 33 -4 60 -8 35 -6 50 -4 59 6 9 11 6 17 -11 29 l-22 16 26 20 c18
14 33 18 53 13 22 -5 25 -4 15 6 -7 7 -13 19 -13 26 0 7 -18 41 -41 75 l-40
63 50 3 c48 3 51 5 51 30 0 15 -9 45 -20 67 -11 22 -20 46 -20 55 0 32 -96
100 -140 100 -10 0 -20 6 -23 14 -3 8 -15 12 -31 9 -18 -4 -28 0 -32 11 -3 9
-12 16 -18 16 -19 0 -94 38 -98 50 -2 6 -9 1 -16 -10z m-107 -439 c-3 -6 -14
-11 -23 -11 -13 0 -13 2 4 14 21 15 30 14 19 -3z m419 -47 c26 -10 18 -31 -11
-36 -39 -5 -63 1 -63 17 0 19 45 30 74 19z"/>
<path d="M1577 1493 c-4 -3 -7 -11 -7 -17 0 -6 5 -5 12 2 6 6 9 14 7 17 -3 3
-9 2 -12 -2z"/>
<path d="M540 1420 c0 -16 5 -30 10 -30 6 0 10 -9 10 -20 0 -20 14 -27 24 -11
5 8 -30 91 -39 91 -3 0 -5 -13 -5 -30z"/>
<path d="M1460 1424 c0 -5 13 -23 28 -41 l27 -32 26 29 25 28 -30 5 c-17 3
-41 8 -53 12 -13 4 -23 3 -23 -1z"/>
<path d="M1860 1391 c0 -5 -8 -7 -17 -5 -23 5 -54 -15 -35 -23 6 -2 10 -9 6
-14 -3 -5 19 -9 50 -9 72 0 98 -13 117 -58 l16 -37 -1 46 c-1 49 -24 83 -50
73 -8 -3 -29 4 -45 15 -32 23 -41 26 -41 12z"/>
<path d="M1354 1365 c-30 -26 -54 -32 -54 -14 0 5 -4 7 -10 4 -5 -3 -10 -1
-10 4 0 6 -16 -7 -36 -29 -20 -22 -42 -40 -50 -40 -7 0 -16 -11 -20 -25 -3
-14 -10 -25 -15 -25 -5 0 -9 -18 -9 -40 0 -29 -5 -42 -19 -50 -27 -14 -33 0
-29 63 3 52 3 52 -25 50 -27 -2 -28 0 -21 30 12 56 11 62 -14 59 -13 -2 -29 1
-35 6 -22 17 -56 20 -74 7 -13 -10 -22 -10 -31 -3 -9 8 -31 -8 -87 -68 -41
-43 -75 -81 -75 -85 0 -4 7 -10 16 -13 12 -4 15 -15 12 -36 -4 -27 -2 -30 16
-24 28 9 34 16 18 21 -6 3 -10 8 -7 13 3 5 -2 16 -11 25 -13 13 -14 21 -6 40
11 23 30 26 92 15 3 0 -3 -5 -12 -11 -22 -12 -24 -39 -3 -39 8 0 15 -4 15 -10
0 -5 -7 -10 -16 -10 -12 0 -14 -3 -6 -12 7 -9 6 -17 -4 -26 -8 -7 -14 -10 -14
-6 0 4 -11 -5 -25 -20 -14 -15 -22 -32 -19 -38 4 -6 -3 -19 -16 -28 -29 -22
-21 -50 14 -50 35 0 41 -17 10 -24 -26 -7 -26 -7 12 -26 21 -11 39 -20 39 -20
1 0 2 16 3 35 2 19 -7 54 -18 77 -11 23 -20 45 -20 50 0 4 15 14 34 22 25 10
36 22 41 45 8 39 17 44 65 36 32 -5 40 -11 40 -28 1 -12 7 -33 15 -47 13 -23
13 -21 8 33 -7 66 8 77 31 23 8 -19 23 -39 34 -45 17 -9 19 -16 12 -40 -8 -28
-5 -31 32 -51 22 -11 36 -15 32 -8 -5 7 -9 20 -9 29 -1 14 2 15 24 6 41 -17
49 -26 53 -57 5 -33 -3 -38 -26 -14 -9 8 -16 11 -16 6 0 -12 25 -33 42 -36 7
-1 24 -8 37 -15 19 -11 22 -11 15 1 -5 7 -9 25 -10 39 l-2 27 37 -21 36 -21
-25 29 -25 28 40 -7 c22 -4 50 -10 63 -13 17 -4 22 -1 22 15 0 27 -15 36 -30
17 -9 -11 -16 -12 -30 -3 -15 10 -16 16 -7 36 10 21 15 23 53 17 31 -4 46 -2
57 10 23 23 27 19 27 -25 0 -22 -5 -40 -10 -40 -6 0 -10 -8 -8 -17 2 -12 -8
-20 -37 -29 -22 -7 -32 -13 -22 -13 20 -1 22 -12 6 -28 -9 -9 -1 -9 30 -1 62
16 62 18 62 218 0 26 6 52 16 62 22 24 12 40 -27 44 -48 4 -73 9 -87 17 -6 4
-17 1 -25 -6 -33 -34 -73 -51 -112 -49 l-41 1 33 -10 c48 -14 34 -33 -26 -36
-51 -1 -69 11 -34 25 9 4 17 16 17 27 0 23 39 36 73 24 20 -8 23 -5 29 22 3
17 12 33 20 36 15 6 63 50 63 58 0 12 -19 3 -46 -20z m-374 -12 c0 -5 -23 -23
-50 -42 -37 -25 -56 -32 -75 -27 -37 9 -19 29 21 24 19 -2 34 0 34 6 0 17 32
46 52 46 10 0 18 -3 18 -7z m20 -78 c0 -55 -8 -65 -38 -47 -9 7 -8 13 8 27 16
14 19 26 15 47 -4 17 -2 28 4 28 7 0 11 -22 11 -55z m36 40 c8 -20 -5 -85 -16
-85 -6 0 -10 23 -10 50 0 48 14 67 26 35z m319 -75 c-10 -11 -23 -20 -29 -20
-6 1 0 10 13 20 30 26 39 26 16 0z m-260 0 c-3 -5 -13 -10 -21 -10 -8 0 -12 5
-9 10 3 6 13 10 21 10 8 0 12 -4 9 -10z m365 -10 c26 -26 25 -60 -1 -94 -18
-23 -26 -26 -53 -20 -37 8 -66 31 -66 53 1 30 54 80 88 81 6 0 21 -9 32 -20z
m-380 -24 c0 -3 -4 -8 -10 -11 -5 -3 -10 -1 -10 4 0 6 5 11 10 11 6 0 10 -2
10 -4z m175 -37 c4 -6 -1 -16 -11 -24 -16 -11 -20 -11 -27 1 -15 27 22 49 38
23z m65 7 c0 -2 3 -12 6 -20 4 -12 2 -15 -9 -10 -21 8 -30 34 -12 34 8 0 15
-2 15 -4z m-106 -82 c5 -14 4 -15 -9 -4 -17 14 -19 20 -6 20 5 0 12 -7 15 -16z
m47 -2 c-7 -2 -18 1 -23 6 -8 8 -4 9 13 5 13 -4 18 -8 10 -11z m-126 -32 c3
-5 2 -10 -4 -10 -5 0 -13 5 -16 10 -3 6 -2 10 4 10 5 0 13 -4 16 -10z"/>
<path d="M1435 1180 c3 -5 8 -10 11 -10 2 0 4 5 4 10 0 6 -5 10 -11 10 -5 0
-7 -4 -4 -10z"/>
<path d="M1373 1165 c-7 -21 -2 -25 25 -18 12 3 22 12 22 19 0 19 -39 18 -47
-1z"/>
<path d="M1578 1365 c22 -31 30 -31 25 -2 -3 14 -12 23 -24 24 -18 2 -18 1 -1
-22z"/>
<path d="M1550 1356 c0 -2 7 -7 16 -10 8 -3 12 -2 9 4 -6 10 -25 14 -25 6z"/>
<path d="M1748 1343 c7 -3 16 -2 19 1 4 3 -2 6 -13 5 -11 0 -14 -3 -6 -6z"/>
<path d="M1532 1323 c7 -9 15 -41 18 -71 l5 -54 28 22 c18 14 27 31 27 48 -1
26 -1 26 -20 -8 l-18 -35 1 49 c2 46 0 50 -26 57 -25 7 -27 6 -15 -8z"/>
<path d="M1743 1306 c-21 -18 -28 -33 -28 -60 0 -20 3 -36 6 -36 11 0 -3 -59
-17 -71 -8 -6 -14 -17 -14 -23 0 -6 -11 -27 -24 -47 l-24 -36 27 -31 c28 -33
58 -44 47 -17 -4 10 1 15 15 15 25 0 53 -26 43 -41 -4 -8 -9 -7 -15 2 -7 12
-9 12 -9 0 0 -10 -3 -11 -13 -3 -8 7 -18 7 -27 2 -9 -6 -18 -3 -25 7 -15 20
-35 9 -35 -18 0 -12 -7 -19 -19 -19 -11 0 -23 -4 -26 -10 -3 -5 -15 -10 -26
-10 -15 0 -19 -7 -19 -35 0 -31 -3 -35 -25 -35 -21 0 -25 5 -25 28 0 20 7 33
23 41 22 11 22 11 -3 6 -14 -4 -45 -9 -68 -12 -24 -3 -46 -12 -49 -19 -6 -17
-37 -18 -63 -2 -10 7 -23 9 -27 5 -4 -5 -1 -12 7 -17 12 -8 11 -10 -5 -10 -20
-1 -20 -1 -1 -15 19 -15 19 -15 -3 -15 -12 0 -21 -6 -20 -12 3 -23 -1 -36 -14
-50 -7 -7 -17 -24 -24 -39 -7 -16 -25 -30 -52 -39 -39 -12 -68 -7 -45 8 11 7
19 23 73 132 l32 65 -38 17 c-21 9 -44 17 -50 17 -7 1 -58 21 -114 46 -56 25
-105 42 -110 39 -5 -3 -9 0 -9 5 0 6 -4 11 -8 11 -5 0 -7 -13 -4 -30 6 -40 -3
-38 -27 8 -17 31 -20 33 -21 14 0 -13 -4 -20 -10 -17 -5 3 -10 -2 -10 -12 0
-19 14 -47 21 -42 2 2 13 -2 23 -8 16 -9 18 -18 13 -57 -4 -30 -3 -45 3 -41 6
3 10 12 10 18 0 26 58 77 88 77 26 0 31 -5 40 -42 11 -41 13 -43 54 -46 23 -1
44 -5 47 -8 3 -3 6 -23 6 -45 1 -37 -1 -39 -30 -40 -16 -1 -23 -3 -13 -6 17
-4 34 -33 19 -33 -23 0 -41 14 -41 31 0 16 -3 17 -18 8 -15 -9 -24 -6 -52 19
-18 17 -38 28 -43 25 -6 -4 4 -18 21 -33 63 -53 21 -71 -44 -19 -23 18 -40 26
-42 19 -2 -6 4 -17 14 -25 16 -11 12 -13 -31 -9 -37 3 -44 2 -29 -5 29 -13 42
-45 15 -38 -14 3 -18 1 -14 -10 3 -8 0 -19 -8 -23 -23 -15 -1 -23 31 -11 25 8
38 7 61 -4 28 -15 39 -35 19 -35 -5 0 -10 -4 -10 -10 0 -5 7 -10 16 -10 8 0
12 -4 9 -10 -3 -5 0 -7 9 -4 17 6 56 -12 56 -26 0 -6 -7 -10 -16 -10 -10 0 -7
-7 12 -25 15 -14 28 -25 29 -25 1 0 2 24 4 53 2 68 9 90 27 83 8 -3 14 1 14 9
0 8 5 15 10 15 6 0 10 -14 10 -32 0 -29 1 -30 18 -16 27 25 62 32 62 14 0 -9
-6 -16 -12 -16 -14 0 -16 -48 -4 -68 4 -7 3 -12 -3 -12 -5 0 -11 5 -13 12 -7
19 -27 0 -48 -44 -17 -36 -17 -39 -2 -25 11 10 27 14 42 10 24 -5 25 -5 5 10
-19 15 -19 16 -2 17 23 0 111 -73 144 -120 21 -29 24 -31 18 -10 -4 14 -16 35
-28 47 -19 22 -19 23 -1 28 10 4 26 10 35 15 22 12 31 2 18 -21 -9 -17 -6 -19
29 -19 35 0 41 -4 52 -30 19 -45 2 -96 -31 -93 -13 1 -18 -1 -11 -3 19 -8 14
-20 -13 -32 -21 -10 -28 -8 -52 17 -26 26 -30 27 -50 14 -19 -13 -24 -12 -42
6 -12 12 -24 21 -27 21 -7 0 -61 57 -86 91 -13 17 -21 20 -29 12 -12 -12 -3
-33 59 -140 30 -52 37 -60 47 -46 11 14 14 14 33 -2 27 -23 114 -29 159 -10
18 8 37 24 42 37 5 13 21 34 35 47 16 15 24 31 21 42 -8 24 12 69 31 69 12 0
15 -6 10 -28 -5 -23 -3 -21 14 11 11 20 27 37 34 37 9 0 12 7 9 20 -6 24 -50
27 -67 5 -8 -10 -15 -12 -26 -5 -13 9 -13 11 0 20 10 6 11 10 3 10 -7 0 -13 6
-13 14 0 7 -10 21 -22 29 l-23 16 23 0 c13 1 22 -5 22 -14 0 -8 5 -15 10 -15
12 0 12 2 0 35 -8 20 -15 26 -30 22 -11 -3 -20 0 -20 5 0 7 19 8 53 4 59 -8
93 -34 105 -80 6 -25 14 -32 38 -34 l29 -4 -27 25 c-31 29 -40 57 -35 105 4
28 2 31 -11 20 -13 -11 -14 -9 -8 12 6 21 5 22 -4 7 -17 -27 -33 -21 -26 11
l7 27 -22 -25 c-13 -16 -19 -19 -15 -8 3 10 1 20 -4 23 -6 4 -10 -7 -10 -24 0
-36 -4 -37 -71 -15 -40 13 -55 14 -72 5 -19 -10 -31 -8 -67 8 -25 11 -52 20
-60 20 -10 0 -11 -2 -2 -6 24 -9 12 -23 -15 -17 -40 10 -45 14 -33 29 8 10 7
15 -2 19 -7 3 -3 3 9 0 18 -4 27 5 55 51 18 30 36 55 40 55 3 0 13 6 20 13 25
24 62 47 78 47 8 0 28 -11 44 -25 24 -21 27 -27 16 -40 -13 -16 -10 -17 30
-17 33 0 34 1 15 22 -18 20 -17 20 21 20 21 0 44 -4 50 -8 13 -8 36 -82 26
-83 -21 -2 39 -18 71 -18 21 -1 47 -6 59 -12 24 -13 80 -3 58 11 -7 4 -19 6
-26 3 -7 -2 -20 0 -30 5 -14 8 -12 11 16 20 18 7 29 16 25 22 -8 13 17 9 26
-4 8 -11 64 39 64 57 0 6 -5 18 -13 26 -10 10 -10 16 0 28 10 13 6 14 -28 8
l-39 -6 27 16 c29 16 97 17 93 0 -14 -47 -14 -63 1 -69 13 -5 14 -1 9 23 -4
18 -1 34 7 42 7 8 14 26 14 41 l2 28 -57 -6 c-81 -8 -102 -13 -131 -34 -22
-15 -37 -18 -85 -13 -50 5 -55 8 -34 15 13 5 39 7 58 4 42 -7 81 17 81 50 0
15 6 24 16 24 8 0 12 5 9 10 -3 6 3 10 15 10 11 0 24 8 27 18 4 9 11 20 17 24
6 4 6 12 -2 21 -10 12 -9 16 3 21 9 3 18 -1 21 -9 13 -32 26 -14 20 25 -8 49
5 51 30 5 18 -33 18 -36 1 -65 -14 -23 -15 -30 -5 -30 8 0 18 4 24 9 5 5 19
12 30 15 17 5 25 0 38 -28 23 -48 20 -71 -10 -85 -26 -11 -26 -12 -9 -32 12
-12 21 -44 25 -87 4 -37 8 -57 9 -44 0 12 6 22 11 22 19 0 22 -28 6 -62 -8
-18 -20 -52 -26 -75 l-11 -43 -40 26 c-23 14 -63 29 -90 33 -52 8 -55 0 -8
-24 19 -10 29 -23 29 -38 0 -14 -3 -18 -8 -10 -10 17 -92 29 -92 14 0 -6 -5
-11 -10 -11 -6 0 -17 -6 -24 -12 -11 -11 -8 -16 15 -30 29 -18 29 -18 14 -55
-10 -24 -12 -39 -5 -41 5 -2 10 -12 10 -23 0 -11 7 -22 16 -26 8 -3 13 -12 10
-19 -6 -17 20 -19 30 -3 3 6 0 15 -7 20 -11 7 -10 9 4 9 13 0 16 5 11 24 -4
17 0 27 12 34 16 9 15 10 -4 16 -12 4 -26 5 -31 2 -5 -3 -12 1 -15 10 -8 22
-8 24 7 24 8 0 27 11 43 25 25 22 38 25 87 24 l59 -2 -6 -32 c-5 -23 -2 -36 9
-45 13 -11 14 -10 9 4 -4 10 0 22 8 29 23 18 29 57 12 74 -30 30 -9 94 53 161
43 45 79 57 68 22 -5 -16 -3 -19 10 -13 15 5 16 16 11 74 -5 42 -3 70 3 73 6
4 7 13 4 22 -3 9 3 24 15 35 25 23 32 24 32 4 0 -13 3 -13 20 -3 25 16 29 78
5 78 -9 0 -18 6 -21 14 -5 12 -9 12 -32 0 -23 -12 -29 -12 -41 1 -18 17 -7 33
11 17 9 -7 18 -7 31 2 21 16 22 26 3 26 -8 0 -16 5 -18 11 -2 6 -15 2 -31 -11
-14 -12 -43 -24 -62 -27 -40 -6 -39 -5 -23 -50 13 -35 32 -43 42 -17 8 22 8
26 -4 19 -5 -3 -10 -2 -10 4 0 18 22 24 36 9 12 -11 12 -19 2 -41 -7 -15 -16
-27 -20 -27 -5 0 -8 -7 -8 -15 0 -14 -29 -35 -49 -35 -6 0 -11 8 -11 18 0 10
-11 29 -25 42 -25 23 -34 60 -15 60 6 0 10 -7 10 -15 0 -32 18 -13 24 25 3 22
11 40 16 40 6 0 10 5 10 11 0 5 -4 8 -9 5 -5 -3 -14 1 -21 9 -15 18 -42 19
-58 3 -9 -9 -12 -8 -12 4 0 9 6 18 13 21 9 3 8 12 -6 38 l-18 34 5 -80 5 -80
-35 40 c-19 22 -43 57 -52 78 -9 20 -25 40 -34 43 -10 3 -21 16 -24 30 -6 23
-34 35 -34 14 0 -14 -22 -12 -43 4 -15 12 -16 18 -7 35 15 30 -11 28 -47 -3z
m37 -61 c-10 -13 -9 -15 11 -15 22 -1 22 -2 -6 -14 -16 -7 -32 -12 -34 -10
-10 8 11 54 25 54 14 0 14 -3 4 -15z m30 -45 c0 -5 -2 -10 -4 -10 -3 0 -8 5
-11 10 -3 6 -1 10 4 10 6 0 11 -4 11 -10z m-29 -31 c23 -12 16 -29 -12 -29
-12 0 -19 7 -19 20 0 23 4 24 31 9z m-41 -92 c0 -20 0 -20 -14 -2 -8 11 -12
23 -9 28 8 13 23 -3 23 -26z m328 21 c-6 -18 -28 -21 -28 -4 0 9 7 16 16 16 9
0 14 -5 12 -12z m-240 -26 c4 -28 -14 -53 -34 -45 -19 7 -18 21 2 19 9 0 19 5
21 12 3 7 -4 12 -16 12 -12 0 -21 6 -21 16 0 26 44 13 48 -14z m-118 -28 c0
-14 -4 -23 -10 -19 -5 3 -10 15 -10 26 0 10 5 19 10 19 6 0 10 -12 10 -26z
m584 -20 c8 -21 8 -21 -9 -21 -8 0 -15 9 -15 19 0 22 16 24 24 2z m-1300 -33
c3 -5 -3 -11 -15 -14 -16 -4 -18 -3 -8 9 13 16 16 17 23 5z m1163 -90 c-4 -21
-2 -31 9 -35 10 -4 12 -10 5 -23 -5 -10 -12 -26 -15 -36 -9 -27 -35 -32 -58
-10 -19 19 -19 22 -4 51 15 29 15 31 -1 25 -11 -4 -14 -3 -9 5 4 7 13 12 20
12 7 0 21 9 31 20 24 27 29 25 22 -9z m-1003 -16 c-7 -16 -24 -21 -24 -6 0 8
7 13 27 20 1 1 0 -6 -3 -14z m566 -25 c17 -11 13 -12 -57 -14 -50 -1 -68 6
-40 17 21 9 81 7 97 -3z m485 -30 c3 -5 -1 -10 -10 -10 -9 0 -13 5 -10 10 3 6
8 10 10 10 2 0 7 -4 10 -10z m-385 -25 c0 -21 -29 -45 -53 -45 -20 1 -20 2 -4
11 9 5 17 18 17 29 0 18 18 31 33 23 4 -2 7 -10 7 -18z m-110 -5 c0 -5 -5 -10
-11 -10 -5 0 -7 5 -4 10 3 6 8 10 11 10 2 0 4 -4 4 -10z m-631 -99 c-15 -5
-22 6 -14 19 6 9 10 9 16 -1 5 -8 4 -15 -2 -18z m-9 -51 c13 -9 12 -12 -5 -26
-18 -13 -21 -13 -32 3 -7 9 -13 20 -13 25 0 11 32 10 50 -2z m901 -20 c10 -6
19 -15 19 -21 0 -6 -5 -7 -12 -2 -7 4 -17 8 -22 8 -5 0 -11 6 -13 13 -6 15 2
15 28 2z m-886 -30 c3 -5 -1 -10 -10 -10 -9 0 -13 5 -10 10 3 6 8 10 10 10 2
0 7 -4 10 -10z m235 -9 c0 -5 -11 -11 -25 -13 -29 -6 -33 6 -8 21 18 10 33 6
33 -8z m555 -20 c10 -18 -36 -24 -53 -7 -15 15 -14 16 15 16 18 0 34 -4 38 -9z
m-586 -35 c9 -11 7 -15 -8 -19 -19 -5 -41 9 -41 25 0 13 37 9 49 -6z m76 -46
c3 -5 3 -10 -2 -10 -4 0 -18 -3 -30 -6 -17 -5 -23 -2 -23 10 0 18 45 23 55 6z
m145 -14 c0 -11 -19 -15 -25 -6 -3 5 1 10 9 10 9 0 16 -2 16 -4z"/>
<path d="M1105 1310 c-3 -5 -1 -10 4 -10 6 0 11 5 11 10 0 6 -2 10 -4 10 -3 0
-8 -4 -11 -10z"/>
<path d="M1860 1300 c0 -5 7 -7 15 -4 8 4 15 8 15 10 0 2 -7 4 -15 4 -8 0 -15
-4 -15 -10z"/>
<path d="M2110 1255 c-7 -8 -17 -12 -24 -8 -6 3 -8 3 -4 -2 4 -4 -2 -25 -13
-46 l-19 -39 25 0 c14 0 28 -7 31 -15 4 -8 10 -12 15 -9 8 5 3 13 -27 48 -16
17 -1 42 39 67 27 16 29 19 11 19 -12 0 -27 -7 -34 -15z"/>
<path d="M2440 1188 c1 -75 2 -81 15 -64 21 28 21 146 0 146 -12 0 -15 -16
-15 -82z"/>
<path d="M687 1201 c2 -51 35 -102 61 -94 18 7 15 17 -13 47 -17 18 -25 39
-25 62 0 20 -5 34 -12 34 -9 0 -12 -15 -11 -49z"/>
<path d="M1674 1236 c-10 -8 -16 -17 -12 -21 4 -4 17 2 29 14 26 24 13 29 -17
7z"/>
<path d="M642 1208 c-2 -28 -27 -43 -56 -32 -23 9 -20 -9 8 -50 13 -19 27 -54
31 -78 6 -31 9 -37 12 -20 3 12 9 19 15 16 7 -4 7 0 0 12 -16 33 -23 86 -11
100 6 7 9 28 6 46 -3 28 -4 29 -5 6z"/>
<path d="M2352 1178 c-18 -42 -18 -44 0 -67 35 -45 12 -59 -28 -16 -26 28 -34
31 -34 11 0 -14 64 -76 79 -76 5 0 11 -10 15 -22 7 -30 22 -14 30 34 5 26 2
40 -9 51 -8 9 -15 20 -15 26 0 6 -4 11 -9 11 -5 0 -6 20 -3 45 2 25 2 45 -1
45 -4 0 -15 -19 -25 -42z"/>
<path d="M537 1189 c7 -7 15 -10 18 -7 3 3 -2 9 -12 12 -14 6 -15 5 -6 -5z"/>
<path d="M1560 1160 c0 -8 5 -22 10 -30 9 -13 10 -13 10 0 0 8 -5 22 -10 30
-9 13 -10 13 -10 0z"/>
<path d="M950 1136 c0 -8 -8 -13 -17 -11 -10 1 -12 0 -5 -2 14 -5 17 -23 3
-23 -5 0 -11 -7 -15 -15 -10 -27 30 -17 42 10 15 32 15 55 2 55 -5 0 -10 -6
-10 -14z"/>
<path d="M1649 1124 c-12 -14 -11 -16 5 -13 11 2 21 10 24 17 5 17 -13 15 -29
-4z"/>
<path d="M1580 1080 c0 -5 5 -10 11 -10 5 0 7 5 4 10 -3 6 -8 10 -11 10 -2 0
-4 -4 -4 -10z"/>
<path d="M1571 1044 c0 -11 3 -14 6 -6 3 7 2 16 -1 19 -3 4 -6 -2 -5 -13z"/>
<path d="M689 1043 c-10 -2 -16 -15 -17 -33 -1 -30 -1 -30 23 -12 36 25 32 53
-6 45z"/>
<path d="M1562 975 c0 -16 2 -22 5 -12 2 9 2 23 0 30 -3 6 -5 -1 -5 -18z"/>
<path d="M1637 986 c-4 -10 -1 -13 9 -9 15 6 19 23 5 23 -5 0 -11 -7 -14 -14z"/>
<path d="M1947 985 c12 -9 25 -31 29 -51 7 -39 27 -41 32 -3 2 13 0 21 -4 16
-4 -4 -13 6 -20 23 -9 21 -20 30 -36 30 l-22 0 21 -15z"/>
<path d="M1527 963 c-10 -9 -9 -23 2 -23 5 0 11 7 15 15 5 15 -5 20 -17 8z"/>
<path d="M2285 941 c-26 -6 -30 -11 -28 -36 1 -17 5 -41 9 -54 5 -17 4 -22 -4
-17 -15 9 -15 1 -1 -39 15 -40 5 -81 -23 -96 -17 -9 -20 -9 -16 3 5 11 -1 13
-23 10 -16 -2 -29 -8 -29 -13 0 -5 -6 -6 -13 -3 -8 3 -26 -10 -41 -31 l-27
-35 28 11 c15 6 38 16 50 22 35 16 54 2 53 -40 -1 -45 16 -128 20 -98 2 11 4
42 5 69 4 61 31 95 63 75 16 -10 26 -10 51 1 17 7 31 17 31 22 0 5 -9 4 -21
-3 -16 -8 -24 -8 -32 0 -9 9 -6 13 11 17 12 4 22 12 22 20 0 7 -6 11 -14 8 -8
-3 -17 -1 -21 5 -11 19 -28 12 -22 -9 4 -15 0 -20 -14 -20 -22 0 -23 1 -7 37
24 55 68 59 99 11 l21 -33 -7 45 c-4 25 -7 55 -6 67 0 11 -6 24 -15 27 -8 3
-12 10 -9 16 4 6 11 8 16 5 10 -7 12 15 3 39 -3 9 -10 14 -14 11 -5 -3 -11 -1
-15 5 -7 11 -33 11 -80 1z m82 -26 c9 -24 0 -25 -26 -4 -23 19 -23 19 -2 19
12 0 24 -7 28 -15z m-47 -19 c0 -3 -4 -8 -10 -11 -5 -3 -10 -1 -10 4 0 6 5 11
10 11 6 0 10 -2 10 -4z"/>
<path d="M599 894 c-8 -7 -27 -15 -42 -16 -28 -2 -39 -18 -12 -18 22 0 -20
-40 -42 -41 -10 0 0 -6 22 -13 32 -10 42 -9 50 1 6 6 22 17 38 22 17 7 27 18
27 30 0 19 2 19 35 5 41 -17 45 -17 45 -4 0 6 -3 9 -7 8 -5 -1 -18 3 -30 10
-48 27 -70 31 -84 16z"/>
<path d="M981 878 c0 -7 4 -22 9 -33 7 -17 9 -15 9 13 1 17 -3 32 -9 32 -5 0
-10 -6 -9 -12z"/>
<path d="M295 870 c-8 -13 5 -13 25 0 13 8 13 10 -2 10 -9 0 -20 -4 -23 -10z"/>
<path d="M331 859 c-18 -11 -40 -18 -47 -15 -21 8 -49 -36 -63 -98 l-12 -55
37 -58 c86 -136 205 -257 360 -368 97 -70 277 -164 259 -135 -3 5 5 21 18 34
23 23 24 26 8 39 -14 13 -18 13 -29 0 -8 -8 -11 -24 -8 -39 8 -31 -7 -31 -27
0 -9 13 -40 50 -70 82 -51 57 -107 151 -120 204 -5 18 -21 31 -59 48 -29 12
-75 42 -103 67 -27 25 -52 45 -56 45 -12 0 -20 115 -10 145 5 17 12 51 15 78
l6 47 -33 -1 c-17 0 -47 -9 -66 -20z m-55 -55 c-4 -9 -9 -15 -11 -12 -3 3 -3
13 1 22 4 9 9 15 11 12 3 -3 3 -13 -1 -22z"/>
<path d="M1969 843 c-6 -16 -13 -43 -16 -62 l-6 -33 26 17 c22 14 27 25 27 61
0 50 -15 58 -31 17z"/>
<path d="M726 834 c-3 -8 1 -14 10 -14 8 0 25 -7 38 -15 17 -12 22 -22 18 -41
-5 -26 -5 -26 21 -9 l26 17 -34 32 c-39 38 -71 50 -79 30z"/>
<path d="M836 833 c-4 -9 -3 -20 2 -25 6 -6 11 1 14 16 6 29 -6 35 -16 9z"/>
<path d="M945 819 c-4 -6 -5 -13 -2 -16 7 -7 27 6 27 18 0 12 -17 12 -25 -2z"/>
<path d="M600 800 c0 -5 6 -10 14 -10 8 0 18 5 21 10 3 6 -3 10 -14 10 -12 0
-21 -4 -21 -10z"/>
<path d="M1921 774 c0 -11 3 -14 6 -6 3 7 2 16 -1 19 -3 4 -6 -2 -5 -13z"/>
<path d="M1555 760 c-3 -5 -1 -10 4 -10 6 0 11 -10 12 -22 l0 -23 10 23 c6 15
13 21 21 16 9 -6 9 -3 -1 9 -15 19 -37 22 -46 7z"/>
<path d="M2157 753 c-12 -12 -7 -22 8 -17 8 4 15 10 15 15 0 11 -14 12 -23 2z"/>
<path d="M1971 702 c13 -38 26 -49 24 -21 -1 11 -9 27 -19 37 -16 16 -16 15
-5 -16z"/>
<path d="M1870 700 c-9 -6 -10 -10 -3 -10 6 0 15 5 18 10 8 12 4 12 -15 0z"/>
<path d="M449 679 c17 -7 22 -15 18 -29 -3 -13 0 -20 10 -20 8 0 11 5 8 10
-11 18 15 10 36 -11 17 -17 23 -18 37 -7 10 8 13 9 9 1 -7 -10 30 -41 37 -31
1 2 7 14 13 28 10 25 10 25 -37 26 -30 0 -60 8 -82 22 -19 12 -44 22 -54 21
-16 0 -15 -2 5 -10z"/>
<path d="M605 681 c-7 -12 12 -24 25 -16 11 7 4 25 -10 25 -5 0 -11 -4 -15 -9z"/>
<path d="M665 681 c-9 -15 8 -35 24 -30 8 3 7 10 -2 23 -10 14 -16 16 -22 7z"/>
<path d="M1396 648 c3 -4 11 -5 19 -1 21 7 19 12 -4 10 -11 0 -18 -5 -15 -9z"/>
<path d="M2353 638 c-11 -13 -23 -32 -27 -43 -4 -11 -4 -15 1 -10 4 6 21 25
37 43 17 17 25 32 20 32 -6 0 -20 -10 -31 -22z"/>
<path d="M1799 632 c-48 -32 -114 -91 -107 -97 11 -11 73 11 70 25 -2 7 14 30
35 52 41 42 41 45 2 20z"/>
<path d="M2160 640 c0 -5 7 -10 16 -10 8 0 12 5 9 10 -3 6 -10 10 -16 10 -5 0
-9 -4 -9 -10z"/>
<path d="M930 631 c0 -5 7 -15 17 -22 15 -13 15 -12 4 9 -12 23 -21 28 -21 13z"/>
<path d="M677 612 c-34 -3 -37 -5 -30 -25 4 -12 7 -34 8 -49 0 -36 4 -35 16 2
10 28 12 29 35 14 28 -19 32 -43 7 -45 -10 -1 -5 -4 12 -8 21 -4 35 -16 45
-38 11 -23 19 -30 29 -24 10 6 10 10 1 16 -6 4 -28 41 -48 84 l-37 76 -38 -3z"/>
<path d="M2157 587 c-3 -8 1 -14 8 -14 7 0 11 6 8 14 -3 7 -6 13 -8 13 -2 0
-5 -6 -8 -13z"/>
<path d="M2396 575 c-3 -9 -6 -26 -5 -38 1 -14 4 -9 9 13 9 37 7 52 -4 25z"/>
<path d="M585 570 c3 -5 14 -10 23 -10 15 0 15 2 2 10 -20 13 -33 13 -25 0z"/>
<path d="M2001 533 c-8 -15 -11 -15 -25 -3 -20 16 -40 1 -31 -23 12 -29 39
-30 62 -2 13 14 23 30 23 36 0 15 -18 10 -29 -8z"/>
<path d="M1125 530 c-3 -5 1 -10 9 -10 9 0 16 5 16 10 0 6 -4 10 -9 10 -6 0
-13 -4 -16 -10z"/>
<path d="M2334 532 c9 -8 -27 -31 -49 -32 -27 -1 -59 -26 -50 -39 4 -7 -5 -11
-22 -11 -16 0 -34 -5 -40 -11 -17 -17 -35 0 -31 29 2 19 -2 26 -11 24 -7 -1
-20 5 -27 15 -12 16 -13 14 -3 -12 7 -21 7 -31 0 -33 -6 -2 -11 -10 -11 -18 0
-8 -9 -14 -19 -14 -11 0 -23 -5 -26 -10 -4 -7 -13 -7 -26 0 -25 14 -24 28 4
32 16 2 21 9 19 23 -5 28 -12 32 -22 15 -6 -9 -5 -18 3 -23 7 -5 1 -6 -15 -3
-15 3 -30 1 -33 -4 -4 -6 -11 -8 -16 -5 -5 4 -9 2 -9 -4 0 -5 -9 -12 -19 -16
-19 -6 -37 -35 -22 -35 4 0 25 12 46 26 25 17 36 20 32 10 -4 -9 2 -21 14 -30
17 -11 18 -16 7 -23 -23 -14 -58 -65 -52 -75 3 -5 32 16 64 46 32 31 64 56 72
56 7 0 0 -12 -17 -26 -16 -14 -50 -45 -75 -70 -42 -41 -70 -58 -55 -34 3 6 2
10 -3 10 -5 0 -26 -21 -46 -47 -20 -25 -36 -40 -36 -32 0 8 6 21 13 28 18 19
-93 4 -115 -16 -9 -8 -22 -12 -28 -8 -19 12 -58 -3 -56 -22 0 -10 -8 -19 -19
-21 -11 -2 -24 -10 -28 -18 -4 -8 -15 -14 -22 -14 -8 0 -15 -4 -15 -10 0 -12
-36 -35 -69 -45 -22 -7 -23 -5 -19 24 4 25 1 31 -14 31 -10 0 -18 7 -18 15 0
8 -3 14 -7 14 -30 -5 -36 2 -16 20 33 31 80 51 141 60 l57 9 -65 0 c-78 -1
-121 -20 -173 -77 -20 -23 -37 -44 -37 -47 0 -4 12 -4 27 -1 30 5 73 -7 73
-22 0 -5 -18 -5 -43 1 -81 17 -114 -13 -85 -77 8 -18 19 -25 39 -25 22 0 27 4
22 17 -6 16 -5 16 17 0 34 -23 40 -21 40 11 0 42 9 44 41 11 15 -16 36 -29 46
-29 29 0 85 24 137 58 28 18 59 32 71 32 12 0 27 6 34 13 11 10 13 9 9 -3 -2
-8 -21 -26 -41 -39 -20 -13 -36 -26 -34 -28 10 -9 182 54 201 74 22 24 53 32
40 11 -4 -7 6 -2 22 9 17 12 39 40 50 62 10 23 27 44 37 47 11 3 16 12 13 20
-3 8 -9 20 -12 28 -4 11 0 13 16 9 12 -3 29 2 41 13 17 15 19 15 14 2 -4 -9
-13 -19 -21 -22 -8 -3 -14 -13 -14 -22 0 -10 -12 -37 -26 -61 l-26 -44 29 14
c86 45 263 188 263 213 0 6 10 14 23 18 17 5 19 8 8 15 -9 6 -11 18 -7 34 8
33 -4 62 -27 64 -10 0 -16 -1 -13 -5z m-114 -106 c0 -2 -9 -6 -20 -9 -11 -3
-18 -1 -14 4 5 9 34 13 34 5z m0 -62 c0 -2 -9 -4 -21 -4 -11 0 -18 4 -14 10 5
8 35 3 35 -6z m-70 2 c0 -11 -19 -15 -25 -6 -3 5 1 10 9 10 9 0 16 -2 16 -4z
m-95 -67 c-9 -13 -56 -31 -63 -24 -8 8 30 34 51 35 10 0 15 -5 12 -11z m-18
-65 c-3 -3 -12 -4 -19 -1 -8 3 -5 6 6 6 11 1 17 -2 13 -5z m-104 -36 c-13 -26
-18 -29 -21 -15 -4 19 14 47 29 47 5 0 2 -15 -8 -32z m77 12 c0 -5 -2 -10 -4
-10 -3 0 -8 5 -11 10 -3 6 -1 10 4 10 6 0 11 -4 11 -10z m-235 -10 c-3 -5 -11
-10 -16 -10 -6 0 -7 5 -4 10 3 6 11 10 16 10 6 0 7 -4 4 -10z m115 -29 c0 -5
-13 -14 -30 -20 -34 -11 -37 -9 -14 13 17 17 44 21 44 7z m-190 -31 c-20 -13
-43 -13 -35 0 3 6 16 10 28 10 18 0 19 -2 7 -10z m-305 -60 c3 -5 -1 -10 -9
-10 -9 0 -16 5 -16 10 0 6 4 10 9 10 6 0 13 -4 16 -10z"/>
<path d="M2151 514 c0 -11 3 -14 6 -6 3 7 2 16 -1 19 -3 4 -6 -2 -5 -13z"/>
<path d="M625 500 c3 -5 8 -10 11 -10 2 0 4 5 4 10 0 6 -5 10 -11 10 -5 0 -7
-4 -4 -10z"/>
<path d="M2194 479 c0 -10 4 -19 8 -19 4 0 8 6 8 14 0 8 -4 17 -8 20 -4 2 -8
-4 -8 -15z"/>
<path d="M700 485 c0 -11 53 -85 58 -81 9 9 -21 67 -39 77 -11 5 -19 7 -19 4z"/>
<path d="M1090 470 c0 -5 5 -10 10 -10 6 0 10 5 10 10 0 6 -4 10 -10 10 -5 0
-10 -4 -10 -10z"/>
<path d="M1752 455 c0 -16 2 -22 5 -12 2 9 2 23 0 30 -3 6 -5 -1 -5 -18z"/>
<path d="M1721 444 c0 -11 3 -14 6 -6 3 7 2 16 -1 19 -3 4 -6 -2 -5 -13z"/>
<path d="M1653 438 c2 -7 0 -21 -4 -30 -6 -10 -4 -27 3 -43 11 -25 13 -25 25
-9 16 22 17 66 1 82 -16 16 -31 15 -25 0z"/>
<path d="M1220 436 c0 -2 8 -10 18 -17 15 -13 16 -12 3 4 -13 16 -21 21 -21
13z"/>
<path d="M830 422 c0 -4 5 -13 12 -20 12 -12 2 -17 -29 -13 -7 1 -13 -3 -13
-9 0 -5 12 -10 28 -10 15 0 38 -7 51 -16 23 -16 23 -16 16 6 -4 13 -19 34 -33
47 -27 25 -32 27 -32 15z"/>
<path d="M1790 405 c-10 -12 -10 -15 4 -15 9 0 16 7 16 15 0 8 -2 15 -4 15 -2
0 -9 -7 -16 -15z"/>
<path d="M710 395 c0 -8 9 -15 20 -15 11 0 20 2 20 5 0 2 -9 9 -20 15 -16 9
-20 8 -20 -5z"/>
<path d="M1798 363 c-14 -2 -29 -11 -32 -20 -5 -11 -2 -13 11 -8 18 7 40 13
56 14 4 1 7 6 7 11 0 6 -3 9 -7 9 -5 -1 -20 -4 -35 -6z"/>
<path d="M970 341 c0 -5 12 -11 27 -14 26 -5 26 -4 8 9 -22 16 -35 18 -35 5z"/>
<path d="M951 266 c16 -30 36 -57 45 -60 8 -3 12 -2 9 4 -3 6 -1 10 4 10 13 0
67 -73 76 -101 8 -25 25 -24 25 2 0 13 4 18 12 13 7 -4 8 -3 4 5 -4 6 -11 9
-16 6 -13 -8 -35 24 -23 36 30 30 107 -30 105 -83 l-1 -33 20 39 c18 38 18 56
-3 56 -6 0 -32 16 -59 36 -29 21 -46 29 -43 20 4 -12 0 -16 -15 -16 -12 0 -21
-5 -21 -11 0 -5 -5 -7 -10 -4 -6 4 -8 15 -5 26 5 14 2 19 -12 19 -21 0 -83 59
-83 78 0 7 -9 12 -19 12 -17 0 -17 -4 10 -54z"/>
<path d="M1031 304 c0 -11 3 -14 6 -6 3 7 2 16 -1 19 -3 4 -6 -2 -5 -13z"/>
<path d="M1595 310 c-3 -5 3 -10 15 -10 12 0 18 5 15 10 -3 6 -10 10 -15 10
-5 0 -12 -4 -15 -10z"/>
<path d="M1828 308 c-3 -8 -20 -12 -44 -10 -21 1 -52 -5 -69 -13 -16 -9 -21
-13 -10 -9 52 15 78 16 101 3 22 -11 27 -11 34 1 6 8 10 21 10 28 0 16 -17 16
-22 0z"/>
<path d="M930 201 c0 -29 24 -50 33 -28 6 16 -10 57 -23 57 -5 0 -10 -13 -10
-29z"/>
<path d="M1248 150 c5 -61 17 -65 26 -8 5 29 3 44 -6 50 -22 13 -23 10 -20
-42z"/>
<path d="M1016 148 c4 -18 2 -28 -5 -28 -19 0 -12 -16 14 -30 18 -10 22 -16
13 -22 -10 -6 -9 -8 4 -8 9 0 23 -3 32 -6 13 -5 13 -1 3 26 -7 17 -24 46 -40
63 l-27 32 6 -27z"/>
<path d="M1291 143 c-1 -6 -4 -20 -7 -30 -5 -17 -5 -17 6 0 6 10 9 23 6 30 -3
9 -5 9 -5 0z"/>
</g>
</svg>
